<svg width="175" height="74" viewBox="0 0 175 74" fill="none" xmlns="http://www.w3.org/2000/svg">
<g clip-path="url(#clip0_460_107)">
<path d="M26.2199 18.4692V33.9072H21.0642V0.347656H26.2199V14.9218H38.4304V0.347656H43.5861V33.9072H38.4304V18.4692H26.2199Z" fill="white"/>
<path d="M65.877 0.347656H59.0608L49.0471 33.9072H54.3234L56.6306 25.4205L57.5827 21.8244L62.3816 3.50804L67.2422 21.8244L68.1918 25.4205L70.445 33.9072H75.7213L65.877 0.347656Z" fill="white"/>
<path d="M97.8842 0.347656H91.068L81.0518 33.9072H86.3281L88.6403 25.4205L89.5899 21.8244L94.3914 3.50804L99.252 21.8244L100.196 25.4205L102.45 33.9072H107.726L97.8842 0.347656Z" fill="white"/>
<path d="M129.755 31.8691C127.918 33.2276 125.279 33.9068 121.843 33.9068H113.428V30.262H122.436C123.899 30.262 125.082 29.9108 125.993 29.2085C126.901 28.5062 127.356 27.6578 127.356 26.6659V21.6805C127.356 20.7219 127.05 19.9478 126.437 19.3557C125.823 18.7636 124.905 18.4663 123.681 18.4663H121.902C118.979 18.4663 116.667 17.7717 114.968 16.3824C113.269 14.9906 112.42 12.9709 112.42 10.318V8.49559C112.42 5.7812 113.338 3.74092 115.176 2.38244C117.013 1.02397 119.652 0.344727 123.088 0.344727H131.562V3.98955H122.495C121.032 3.98955 119.849 4.3407 118.938 5.04301C118.03 5.74531 117.575 6.59372 117.575 7.58567V11.2305C117.575 12.2199 117.971 13.0426 118.761 13.6988C119.551 14.3524 120.578 14.6805 121.843 14.6805H123.622C126.427 14.6805 128.611 15.3367 130.171 16.6465C131.731 17.9588 132.511 19.9401 132.511 22.5904V25.7534C132.511 28.4703 131.593 30.508 129.755 31.8665V31.8691Z" fill="white"/>
<path d="M144.496 18.4692V33.9072H139.34V0.347656H144.496V14.9218H156.706V0.347656H161.862V33.9072H156.706V18.4692H144.496Z" fill="white"/>
<path d="M174.509 27.9893V33.9076H168.581V27.9893H174.509Z" fill="white"/>
<path d="M0.336182 18.8896V15.496L12.6314 9.71094V12.6842L2.59966 17.08L12.6314 21.5066V24.544L0.336182 18.8896Z" fill="#E98200"/>
<path d="M5.75491 72.0172C4.68733 70.9356 4.15354 69.5079 4.15354 67.7368V52.732H0.301514V49.0436H4.15354V43.1406H9.1912V49.0436H16.0663V52.732H9.1912V67.9828C9.1912 68.7056 9.40677 69.2131 9.84304 69.5079C10.2767 69.8027 10.9491 69.9513 11.8576 69.9513H16.0663V73.6397H10.3768C8.36228 73.6397 6.81993 73.0989 5.75491 72.0172Z" fill="white"/>
<path d="M22.9967 71.7962C21.3774 70.5659 20.5664 68.5589 20.5664 65.7702V56.9144C20.5664 54.095 21.2978 52.0778 22.7606 50.8628C24.2208 49.6504 26.6511 49.043 30.0515 49.043H31.6528C34.4578 49.043 36.5827 49.6914 38.025 50.9858C39.4672 52.2828 40.1884 54.177 40.1884 56.6684V63.0635H25.6092V66.7544C25.6092 67.772 25.9839 68.5589 26.7358 69.1151C27.4852 69.6739 28.5938 69.9507 30.054 69.9507H38.2919V73.6391H30.6469C27.1695 73.6391 24.6212 73.0239 23.0018 71.7936L22.9967 71.7962ZM35.2636 59.3751V55.6841C35.2636 54.8306 34.9275 54.1283 34.2551 53.5695C33.5827 53.0133 32.7333 52.7339 31.7067 52.7339H29.4535C28.0318 52.7339 27.0335 53.0056 26.4612 53.5465C25.8889 54.0873 25.6015 54.8819 25.6015 55.9328V59.3776H35.2636V59.3751Z" fill="white"/>
<path d="M49.7838 71.7965C48.1645 70.5662 47.3535 68.5593 47.3535 65.7705V56.9148C47.3535 54.1594 48.1722 52.1601 49.812 50.9144C51.4519 49.6687 53.99 49.0459 57.4288 49.0459H63.8882V52.7343H56.836C55.3732 52.7343 54.2671 53.0137 53.5178 53.5699C52.7659 54.1287 52.3912 54.9155 52.3912 55.9306V66.7522C52.3912 67.7698 52.7659 68.5567 53.5178 69.1129C54.2671 69.6717 55.3758 69.9485 56.836 69.9485H63.8882V73.6369H57.4288C53.9515 73.6369 51.4031 73.0217 49.7838 71.7914V71.7965Z" fill="white"/>
<path d="M70.7634 39.2057H75.8011V50.0274C76.9867 49.3712 78.4675 49.0431 80.2459 49.0431H81.7857C84.9859 49.0431 87.3649 49.666 88.9277 50.9117C90.4881 52.1574 91.2682 54.1592 91.2682 56.912V73.6392H86.2306V55.9303C86.2306 54.9461 85.8841 54.1669 85.1938 53.5927C84.5009 53.0186 83.5642 52.7315 82.3785 52.7315H79.6531C78.3879 52.7315 77.4307 53.0032 76.7788 53.544C76.127 54.0849 75.8011 54.6667 75.8011 55.2895V73.6392H70.7634V39.2031V39.2057Z" fill="white"/>
<path d="M99.3468 73.6409H96.7908L104.428 43.9082H106.984L99.3468 73.6409Z" fill="#E98200"/>
<path d="M109.443 66.6924V63.6551L119.667 59.2285L109.443 54.8326V51.8594L121.738 57.6444V61.0381L109.443 66.695V66.6924Z" fill="#E98200"/>
</g>
<defs>
<clipPath id="clip0_460_107">
<rect width="174.509" height="73.2937" fill="white" transform="translate(0 0.347656)"/>
</clipPath>
</defs>
</svg>
