<svg width="65" height="53" viewBox="0 0 65 53" fill="none" xmlns="http://www.w3.org/2000/svg">
<g clip-path="url(#clip0_1027_28)">
<path d="M14.6375 1.90234C16.3538 1.90234 18.0047 2.59459 19.2255 3.83451L20.2428 2.83281L19.2255 3.83451C20.4471 5.07521 21.1375 6.76284 21.1375 8.52734C21.1375 10.2918 20.4471 11.9795 19.2255 13.2202C18.0047 14.4601 16.3538 15.1523 14.6375 15.1523C12.9212 15.1523 11.2703 14.4601 10.0495 13.2202C8.82787 11.9795 8.13749 10.2918 8.13749 8.52734C8.13749 6.76285 8.82787 5.07521 10.0495 3.83451C11.2703 2.59459 12.9212 1.90234 14.6375 1.90234ZM51.4375 1.90234C53.1538 1.90234 54.8047 2.59459 56.0255 3.83451L57.0816 2.79463L56.0255 3.83451C57.2471 5.07521 57.9375 6.76284 57.9375 8.52734C57.9375 10.2918 57.2471 11.9795 56.0255 13.2202C54.8047 14.4601 53.1538 15.1523 51.4375 15.1523C49.7212 15.1523 48.0703 14.4601 46.8495 13.2202C45.6279 11.9795 44.9375 10.2918 44.9375 8.52734C44.9375 6.76284 45.6279 5.07521 46.8495 3.83451L45.7934 2.79463L46.8495 3.83451C48.0703 2.59459 49.7212 1.90234 51.4375 1.90234ZM1.73749 30.7391C1.73749 25.5634 5.86775 21.4023 10.9075 21.4023H15.1775C16.1615 21.4023 17.1099 21.5608 18.0012 21.8525C17.9647 22.2842 17.9475 22.7185 17.9475 23.1523C17.9475 26.2155 18.8886 29.0589 20.4887 31.4023H2.36749C2.04775 31.4023 1.73749 31.1209 1.73749 30.7391ZM46.5275 23.1523C46.5275 22.7103 46.5069 22.2764 46.4693 21.8496C47.3573 21.5576 48.3069 21.4023 49.2975 21.4023H53.5675C58.6072 21.4023 62.7375 25.5634 62.7375 30.7391C62.7375 31.1265 62.4318 31.4023 62.1075 31.4023H43.9907C45.5923 29.0576 46.5275 26.2138 46.5275 23.1523ZM24.1375 23.1523C24.1375 20.9569 24.9964 18.8559 26.5181 17.3105C28.039 15.7658 30.0968 14.9023 32.2375 14.9023C34.3782 14.9023 36.436 15.7658 37.9569 17.3105C39.4785 18.8559 40.3375 20.9569 40.3375 23.1523C40.3375 25.3478 39.4785 27.4488 37.9569 28.9942C36.436 30.5389 34.3782 31.4023 32.2375 31.4023C30.0968 31.4023 28.039 30.5389 26.5181 28.9942C24.9964 27.4488 24.1375 25.3478 24.1375 23.1523ZM14.5375 49.6906C14.5375 43.022 19.8578 37.6523 26.3675 37.6523H38.1075C44.6172 37.6523 49.9375 43.022 49.9375 49.6906C49.9375 50.3809 49.3936 50.9023 48.7675 50.9023H15.7075C15.0841 50.9023 14.5375 50.3836 14.5375 49.6906Z" stroke="#6DFF6A" stroke-width="3"/>
</g>
<defs>
<clipPath id="clip0_1027_28">
<rect width="64" height="52" fill="white" transform="translate(0.237488 0.402344)"/>
</clipPath>
</defs>
</svg>
