<svg width="53" height="55" viewBox="0 0 53 55" fill="none" xmlns="http://www.w3.org/2000/svg">
<path d="M36.0973 15.7285L38.0225 17.6537L22.0004 33.6759L14.1925 25.8681L16.1177 23.9428L22.0004 29.8255L36.0973 15.7285Z" fill="#6DFF6A"/>
<path d="M48.1243 0.193359H4.59083C3.43625 0.193359 2.32896 0.652014 1.51255 1.46842C0.696142 2.28483 0.237488 3.39212 0.237488 4.5467V19.7834C0.237488 34.1277 7.18107 42.8207 13.0064 47.5877C19.2806 52.7192 25.5222 54.4632 25.7943 54.534C26.1684 54.6357 26.563 54.6357 26.9371 54.534C27.2092 54.4632 33.4426 52.7192 39.725 47.5877C45.534 42.8207 52.4776 34.1277 52.4776 19.7834V4.5467C52.4776 3.39212 52.0189 2.28483 51.2025 1.46842C50.3861 0.652014 49.2788 0.193359 48.1243 0.193359ZM48.1243 19.7834C48.1243 29.8696 44.4076 38.0566 37.0776 44.1131C33.8869 46.7407 30.258 48.7854 26.3575 50.1534C22.5081 48.8092 18.9241 46.8008 15.768 44.2193C8.35103 38.1518 4.59083 29.9321 4.59083 19.7834V4.5467H48.1243V19.7834Z" fill="#6DFF6A"/>
</svg>
