<svg width="51" height="51" viewBox="0 0 51 51" fill="none" xmlns="http://www.w3.org/2000/svg">
<path d="M45.7339 25.4024C45.7339 30.7369 43.6148 35.853 39.8427 39.6251C36.0706 43.3972 30.9545 45.5163 25.62 45.5163C20.2854 45.5163 15.1694 43.3972 11.3973 39.6251C7.62517 35.853 5.50603 30.7369 5.50603 25.4024C5.50603 20.0678 7.62517 14.9517 11.3973 11.1796C15.1694 7.40755 20.2854 5.2884 25.62 5.2884C27.5308 5.2884 29.3913 5.56497 31.1513 6.06782L35.0987 2.12045C32.0928 0.880953 28.8714 0.248624 25.62 0.259914C22.3182 0.259914 19.0488 0.910243 15.9984 2.17377C12.948 3.43729 10.1763 5.28927 7.84159 7.62397C3.12647 12.3391 0.477539 18.7342 0.477539 25.4024C0.477539 32.0705 3.12647 38.4656 7.84159 43.1807C10.1763 45.5154 12.948 47.3674 15.9984 48.6309C19.0488 49.8945 22.3182 50.5448 25.62 50.5448C32.2882 50.5448 38.6832 47.8959 43.3984 43.1807C48.1135 38.4656 50.7624 32.0705 50.7624 25.4024M15.3367 20.575L11.7916 24.1452L23.1057 35.4593L48.2482 10.3169L44.7031 6.74666L23.1057 28.344L15.3367 20.575Z" fill="#6DFF6A"/>
</svg>
