<svg width="49" height="40" viewBox="0 0 49 40" fill="none" xmlns="http://www.w3.org/2000/svg">
<path d="M43.5171 0.896485C44.7365 0.896099 45.911 1.35663 46.8051 2.18577C47.6992 3.0149 48.2469 4.15136 48.3383 5.36732L48.3504 5.72982V34.7298C48.3508 35.9492 47.8903 37.1237 47.0611 38.0178C46.232 38.9119 45.0955 39.4596 43.8796 39.5511L43.5171 39.5632H4.85042C3.63103 39.5635 2.45655 39.103 1.56243 38.2739C0.668311 37.4447 0.120628 36.3083 0.0291737 35.0923L0.0170901 34.7298V5.72982C0.0167042 4.51042 0.477239 3.33595 1.30637 2.44183C2.13551 1.54771 3.27196 1.00002 4.48792 0.908568L4.85042 0.896485H43.5171ZM43.5171 9.14699L26.7454 25.9187C26.0657 26.5975 25.1444 26.9788 24.1838 26.9788C23.2231 26.9788 22.3018 26.5975 21.6221 25.9187L4.85042 9.14699V34.7298H43.5171V9.14699ZM40.0999 5.72982H8.26759L24.1838 21.646L40.0999 5.72982Z" fill="white"/>
</svg>
