<svg width="46" height="46" viewBox="0 0 46 46" fill="none" xmlns="http://www.w3.org/2000/svg">
<path d="M22.0866 0.627072C10.0558 1.19349 0.564927 11.1398 0.601178 23.0958C0.607138 26.6151 1.44973 30.0825 3.05944 33.212L0.662351 44.7693C0.633103 44.9138 0.640761 45.0633 0.684617 45.204C0.728473 45.3448 0.807111 45.4722 0.913259 45.5745C1.01941 45.6768 1.14964 45.7507 1.29191 45.7894C1.43418 45.828 1.5839 45.8302 1.72722 45.7956L13.1326 43.1131C16.1534 44.6058 19.4696 45.4047 22.8388 45.4512C35.1346 45.6393 45.3846 35.9467 45.7675 23.746C46.1798 10.6618 35.3068 -0.000520468 22.0866 0.624806V0.627072ZM35.6965 35.4437C34.0527 37.0816 32.1019 38.379 29.9558 39.2616C27.8097 40.1441 25.5105 40.5945 23.19 40.5868C20.4599 40.5952 17.7652 39.9684 15.319 38.7562L13.7308 37.97L6.73663 39.6148L8.20932 32.521L7.4254 30.9985C6.15458 28.5351 5.49557 25.8019 5.5041 23.0301C5.5041 18.3401 7.34383 13.9289 10.6834 10.6142C14.0122 7.3192 18.5063 5.47028 23.19 5.46882C27.9162 5.46882 32.3569 7.29496 35.6965 10.6119C37.3419 12.2333 38.6476 14.1664 39.5372 16.2982C40.4269 18.43 40.8828 20.7178 40.8781 23.0278C40.8781 27.677 39.0089 32.1585 35.6965 35.446V35.4437Z" fill="white"/>
<path d="M34.154 27.8909L29.7789 26.6447C29.4966 26.5637 29.1977 26.5601 28.9135 26.6342C28.6293 26.7083 28.3703 26.8575 28.1635 27.0661L27.0941 28.1491C26.8729 28.3733 26.5904 28.5272 26.2821 28.5917C25.9739 28.6561 25.6534 28.6283 25.3609 28.5116C23.2923 27.6801 18.9377 23.8376 17.8252 21.914C17.6693 21.6423 17.5981 21.3302 17.6207 21.0178C17.6433 20.7053 17.7587 20.4068 17.9521 20.1604L18.8856 18.9596C19.0653 18.7295 19.179 18.4548 19.2145 18.1651C19.25 17.8753 19.206 17.5813 19.0872 17.3147L17.2475 13.1821C17.1434 12.9511 16.9872 12.7474 16.7911 12.587C16.5951 12.4266 16.3644 12.3138 16.1174 12.2576C15.8704 12.2014 15.6137 12.2033 15.3675 12.263C15.1213 12.3228 14.8924 12.4388 14.6986 12.6021C13.4774 13.6284 12.0274 15.1849 11.8529 16.9136C11.5425 19.9564 12.8566 23.7922 17.8275 28.4006C23.571 33.7227 28.1726 34.4273 31.1655 33.7046C32.8648 33.2968 34.2242 31.6587 35.0784 30.3197C35.215 30.107 35.2998 29.8652 35.3259 29.6138C35.3521 29.3623 35.3188 29.1083 35.2289 28.872C35.139 28.6358 34.9949 28.4239 34.8082 28.2535C34.6215 28.0831 34.3974 27.9589 34.154 27.8909Z" fill="white"/>
</svg>
