<svg width="23" height="24" viewBox="0 0 23 24" fill="none" xmlns="http://www.w3.org/2000/svg">
<path d="M0 12C0 14.2053 1.82106 16 4.05882 16C5.13306 16 6.10447 15.58 6.831 14.9067L14.9365 19.472C14.9121 19.6453 14.8824 19.8187 14.8824 20C14.8824 22.2053 16.7034 24 18.9412 24C21.1789 24 23 22.2053 23 20C23 17.7947 21.1789 16 18.9412 16C17.8669 16 16.8955 16.42 16.169 17.0933L8.06353 12.5293C8.08788 12.3547 8.11765 12.1813 8.11765 12C8.11765 11.8187 8.08788 11.6453 8.06353 11.4707L16.169 6.90667C16.8955 7.58 17.8669 8 18.9412 8C21.1789 8 23 6.20533 23 4C23 1.79467 21.1789 0 18.9412 0C16.7034 0 14.8824 1.79467 14.8824 4C14.8824 4.18133 14.9121 4.35467 14.9365 4.52933L6.831 9.09333C6.08283 8.39291 5.09076 8.00164 4.05882 8C1.82106 8 0 9.79467 0 12Z" fill="#5B5B5B"/>
</svg>
