<svg width="25" height="26" viewBox="0 0 25 26" fill="none" xmlns="http://www.w3.org/2000/svg">
<path d="M13.7434 0.32373C15.1453 0.327469 15.8569 0.334946 16.4712 0.352392L16.713 0.361115C16.9921 0.371085 17.2675 0.383546 17.6003 0.3985C18.9262 0.460808 19.8309 0.670164 20.6247 0.977966C21.4472 1.29449 22.14 1.72317 22.8329 2.41479C23.4666 3.03774 23.9569 3.79129 24.2697 4.62299C24.5775 5.4168 24.7869 6.32151 24.8492 7.64867C24.8642 7.98015 24.8766 8.25555 24.8866 8.53594L24.8941 8.7777C24.9128 9.39081 24.9202 10.1024 24.9227 11.5043L24.924 12.4339V14.0664C24.927 14.9754 24.9175 15.8843 24.8953 16.793L24.8878 17.0348C24.8779 17.3152 24.8654 17.5906 24.8504 17.922C24.7881 19.2492 24.5763 20.1527 24.2697 20.9477C23.9578 21.7799 23.4674 22.5336 22.8329 23.1559C22.2098 23.7894 21.4563 24.2796 20.6247 24.5927C19.8309 24.9005 18.9262 25.1099 17.6003 25.1722C17.3046 25.1861 17.0088 25.1986 16.713 25.2096L16.4712 25.2171C15.8569 25.2345 15.1453 25.2432 13.7434 25.2457L12.8138 25.247H11.1825C10.2732 25.2501 9.36379 25.2406 8.45468 25.2183L8.21293 25.2108C7.9171 25.1996 7.62134 25.1868 7.32566 25.1722C5.99974 25.1099 5.09503 24.9005 4.29998 24.5927C3.46838 24.2804 2.71513 23.79 2.09303 23.1559C1.45879 22.5332 0.96802 21.7796 0.654954 20.9477C0.347152 20.1539 0.137797 19.2492 0.0754887 17.922C0.061605 17.6263 0.0491432 17.3306 0.0381039 17.0348L0.0318732 16.793C0.00890899 15.8843 -0.00147681 14.9754 0.000719037 14.0664V11.5043C-0.00275896 10.5953 0.00638054 9.68639 0.0281347 8.7777L0.0368578 8.53594C0.0468271 8.25555 0.0592887 7.98015 0.0742426 7.64867C0.136551 6.32151 0.345906 5.41804 0.653708 4.62299C0.966637 3.79043 1.45838 3.03666 2.09427 2.41479C2.71622 1.78108 3.46897 1.29074 4.29998 0.977966C5.09503 0.670164 5.9985 0.460808 7.32566 0.3985C7.65714 0.383546 7.93379 0.371085 8.21293 0.361115L8.45468 0.353638C9.36338 0.331497 10.2723 0.321943 11.1813 0.324977L13.7434 0.32373ZM12.4623 6.55454C10.8098 6.55454 9.225 7.211 8.05649 8.3795C6.88799 9.54801 6.23153 11.1328 6.23153 12.7854C6.23153 14.4379 6.88799 16.0227 8.05649 17.1912C9.225 18.3597 10.8098 19.0162 12.4623 19.0162C14.1149 19.0162 15.6997 18.3597 16.8682 17.1912C18.0367 16.0227 18.6932 14.4379 18.6932 12.7854C18.6932 11.1328 18.0367 9.54801 16.8682 8.3795C15.6997 7.211 14.1149 6.55454 12.4623 6.55454ZM12.4623 9.04687C12.9533 9.04678 13.4394 9.1434 13.893 9.3312C14.3467 9.519 14.7588 9.79431 15.106 10.1414C15.4532 10.4885 15.7287 10.9006 15.9166 11.3541C16.1046 11.8077 16.2014 12.2938 16.2015 12.7847C16.2015 13.2757 16.1049 13.7618 15.9171 14.2154C15.7293 14.669 15.454 15.0812 15.1069 15.4284C14.7598 15.7756 14.3477 16.0511 13.8942 16.239C13.4407 16.427 12.9545 16.5238 12.4636 16.5238C11.4721 16.5238 10.5212 16.13 9.82008 15.4289C9.11898 14.7278 8.7251 13.7769 8.7251 12.7854C8.7251 11.7938 9.11898 10.8429 9.82008 10.1418C10.5212 9.44074 11.4721 9.04687 12.4636 9.04687M19.0059 4.6853C18.5928 4.6853 18.1966 4.84941 17.9045 5.14154C17.6124 5.43367 17.4482 5.82987 17.4482 6.243C17.4482 6.65613 17.6124 7.05234 17.9045 7.34446C18.1966 7.63659 18.5928 7.8007 19.0059 7.8007C19.4191 7.8007 19.8153 7.63659 20.1074 7.34446C20.3995 7.05234 20.5636 6.65613 20.5636 6.243C20.5636 5.82987 20.3995 5.43367 20.1074 5.14154C19.8153 4.84941 19.4191 4.6853 19.0059 4.6853Z" fill="#FF8A00"/>
</svg>
