<svg width="25" height="25" viewBox="0 0 25 25" fill="none" xmlns="http://www.w3.org/2000/svg">
<path d="M22.1103 0C22.8433 0 23.5463 0.291184 24.0646 0.809495C24.5829 1.32781 24.8741 2.03079 24.8741 2.76379V22.1103C24.8741 22.8433 24.5829 23.5463 24.0646 24.0646C23.5463 24.5829 22.8433 24.8741 22.1103 24.8741H2.76379C2.03079 24.8741 1.32781 24.5829 0.809495 24.0646C0.291184 23.5463 0 22.8433 0 22.1103V2.76379C0 2.03079 0.291184 1.32781 0.809495 0.809495C1.32781 0.291184 2.03079 0 2.76379 0H22.1103ZM21.4194 21.4194V14.0953C21.4194 12.9005 20.9447 11.7547 20.0999 10.9098C19.255 10.065 18.1092 9.59035 16.9144 9.59035C15.7398 9.59035 14.3717 10.3089 13.7084 11.3868V9.85291H9.85291V21.4194H13.7084V14.6066C13.7084 13.5426 14.5652 12.672 15.6292 12.672C16.1423 12.672 16.6344 12.8758 16.9972 13.2386C17.3601 13.6014 17.5639 14.0935 17.5639 14.6066V21.4194H21.4194ZM5.36175 7.68334C5.97748 7.68334 6.56798 7.43874 7.00336 7.00336C7.43874 6.56798 7.68334 5.97748 7.68334 5.36175C7.68334 4.07659 6.64692 3.02635 5.36175 3.02635C4.74237 3.02635 4.14835 3.2724 3.71037 3.71037C3.2724 4.14835 3.02635 4.74237 3.02635 5.36175C3.02635 6.64692 4.07659 7.68334 5.36175 7.68334ZM7.28259 21.4194V9.85291H3.45474V21.4194H7.28259Z" fill="#FF8A00"/>
</svg>
