<svg width="389" height="51" viewBox="0 0 389 51" fill="none" xmlns="http://www.w3.org/2000/svg">
<path d="M256.182 50.2491C256.375 49.5209 255.826 49.4474 255.329 49.2488C254.201 48.7854 253.148 48.2338 252.265 47.3511C249.408 44.4974 249.69 42.6071 253.289 40.8125C253.823 40.5477 254.35 40.2608 254.973 39.9298C254.58 39.1723 253.83 39.1723 253.296 38.856C250.194 37.0025 249.831 34.0458 252.665 31.9569C254.357 30.7065 254.327 30.1549 252.806 28.6471C248.725 24.6092 250.343 17.4012 255.7 14.7754C258.282 13.5103 261.08 13.2014 263.869 13.5324C267.327 13.9443 270.651 13.731 273.872 12.4144C275.497 11.7451 276.202 12.0908 275.771 13.9075C275.408 15.4594 276.313 17.7983 273.182 17.5409C272.158 17.46 272.566 18.1808 272.818 18.7692C275.363 24.668 273.196 29.184 266.919 31.0081C264.567 31.6921 262.155 32.0378 259.692 31.6848C259.195 31.6112 258.579 31.3979 258.356 32.0452C258.082 32.8395 258.735 33.1411 259.336 33.2441C261.391 33.5824 263.461 33.8472 265.517 34.1634C267.32 34.4429 269.175 34.5753 270.911 35.0828C276.09 36.6127 277.277 41.3053 273.538 45.1961C271.839 46.9687 269.768 48.219 267.438 49.0428C266.593 49.3444 265.635 49.4106 265.086 50.2564H256.175L256.182 50.2491ZM264.73 23.0131C264.634 22.2629 264.589 21.5789 264.456 20.9169C264.218 19.7254 263.58 18.8428 262.252 18.7913C260.812 18.7398 260.352 19.7548 260.159 20.9316C259.922 22.3732 259.937 23.8075 260.36 25.2196C260.657 26.1979 261.295 26.9187 262.371 26.9113C263.439 26.9113 264.099 26.1758 264.374 25.2049C264.574 24.4768 264.626 23.7045 264.73 23.0131ZM263.12 44.9019C263.409 44.8725 263.855 44.8945 264.27 44.7842C265.368 44.49 266.659 44.2326 266.652 42.8278C266.637 41.4303 265.213 41.5553 264.3 41.2464C263.491 40.9743 262.593 40.9522 261.74 40.8051C260.864 40.6506 259.996 40.43 259.596 41.5847C259.247 42.5924 259.455 43.4603 260.271 44.1296C261.042 44.7548 262.007 44.8651 263.12 44.9093V44.9019Z" fill="white"/>
<path d="M46.642 21.6816C46.642 26.5654 46.5752 31.4566 46.6717 36.3404C46.7088 38.2674 46.2339 39.1427 44.0524 39.0103C41.0102 38.8264 37.9384 39.0103 34.8888 38.9367C33.479 38.8999 32.7815 39.2971 32.2472 40.724C30.6965 44.8796 28.6708 46.233 24.7382 46.2109C20.776 46.1889 18.6167 44.6149 17.0437 40.5107C16.7246 39.6722 16.502 38.8705 15.3297 38.9588C13.0295 39.128 12.5843 37.7011 12.5101 35.8623C12.2652 30.2651 12.243 30.2651 6.46281 30.2724C6.28473 30.2724 6.10665 30.2945 5.93599 30.2724C4.68201 30.0665 2.62668 30.8829 2.58958 28.897C2.54506 26.9111 4.60039 26.8155 5.98793 27.1833C10.3435 28.3233 14.046 25.418 18.2012 25.521C19.1065 25.5431 19.3216 24.8738 19.2623 24.0868C19.1881 23.1453 18.5129 23.0497 17.7709 23.0497C14.4541 23.0497 11.1374 23.0791 7.82067 23.0497C6.72993 23.0423 5.24593 23.2777 5.14947 21.7184C5.05301 20.0488 6.53701 20.0268 7.77615 19.9532C10.9222 19.7718 12.5027 18.1487 12.5175 15.0841C12.5324 12.0465 12.9256 11.6346 15.9604 11.6052C17.7931 11.5904 19.6259 11.6346 21.4586 11.5904C22.5345 11.5684 24.0185 11.8773 24.0111 10.2003C24.0036 8.54543 22.5196 9.09707 21.607 9.08971C17.3257 9.03823 13.0518 9.08236 8.77042 9.08971C7.61291 9.08971 6.32183 9.18533 6.25505 7.58191C6.18827 5.94908 7.49419 5.85346 8.63686 5.9785C11.4194 6.28006 12.9701 5.56662 12.5917 2.40392C12.4285 1.02116 13.5192 0.27094 14.9735 0.27094C23.2691 0.285651 31.572 0.175324 39.8601 0.366557C44.1118 0.462173 46.6049 3.36744 46.6198 7.54514C46.6346 12.2598 46.6198 16.9744 46.6198 21.689C46.6272 21.689 46.642 21.689 46.6494 21.689L46.642 21.6816ZM24.6937 43.1218C27.6172 43.0997 29.3906 41.3051 29.346 38.4072C29.3089 35.9947 27.0087 33.7734 24.6492 33.8617C22.4083 33.95 19.9746 36.4066 19.9301 38.6278C19.8856 40.9226 22.2303 43.1365 24.6937 43.1144V43.1218Z" fill="#F4BF6D"/>
<path d="M110.751 5.34627C112.843 5.25065 114.936 5.11826 117.028 5.08884C117.822 5.07413 119.106 4.55927 119.254 5.69196C119.41 6.92026 119.989 8.67813 118.401 9.36951C116.227 10.3183 115.967 11.9806 115.93 13.915C115.819 19.3136 115.64 24.7123 115.574 30.1035C115.551 31.7805 115.722 33.4722 118.215 33.3177C119.655 33.2295 119.462 34.3842 119.202 35.1271C118.846 36.1494 119.914 38.0029 117.659 38.0176C112.68 38.0397 107.701 38.0176 102.73 38.0176C102.106 38.0176 101.372 38.0324 101.513 37.1497C101.721 35.8773 101.127 34.3327 102.604 33.4428C104.822 32.1041 106.484 27.3969 105.134 25.308C104.147 23.7782 102.24 24.6755 100.793 24.727C99.361 24.7785 97.1499 24.2857 96.6972 25.8817C96.1333 27.8676 96.3559 30.133 96.7788 32.2512C96.9272 32.9941 97.4615 33.5752 98.2332 33.4648C100.637 33.1191 99.9249 34.7814 99.9175 35.9214C99.9027 37.363 99.4872 38.2015 97.6099 38.1206C93.425 37.9514 89.2327 38.1427 85.0404 38.1059C84.2317 38.1059 82.8293 38.8267 82.7328 37.3704C82.6512 36.12 82.2357 34.3401 83.7865 33.7149C86.0496 32.8102 86.3167 31.1848 86.3093 29.1768C86.2722 23.6899 86.2722 18.2103 86.3093 12.7234C86.3241 11.0685 86.0199 9.80346 83.9645 9.78875C82.6661 9.7814 82.5399 8.89143 82.8516 8.00882C83.1929 7.05265 82.258 5.35362 84.3355 5.30949C89.1363 5.21388 93.937 5.11826 98.7377 5.00793C99.413 4.99322 100.118 5.12561 99.9769 5.91261C99.7246 7.28802 100.778 9.01647 98.7377 9.96527C97.3354 10.6199 95.9998 16.6878 96.8827 17.8941C97.046 18.1147 97.4467 18.2471 97.7509 18.2765C98.3593 18.3427 98.9752 18.328 99.5836 18.3133C106.432 18.1294 105.141 19.7476 105.267 12.4145C105.297 10.87 104.859 9.67107 102.915 9.79611C101.624 9.87701 101.387 9.03853 101.698 8.1265C102.047 7.10414 101.157 5.28743 103.405 5.3242C105.846 5.36098 108.295 5.33156 110.736 5.33156L110.751 5.34627Z" fill="white"/>
<path d="M329.774 16.1506C329.655 16.6434 329.454 17.1288 329.44 17.629C329.388 19.1956 328.809 20.0414 327.036 19.6369C325.292 19.2397 324.483 19.8723 324.535 21.7331C324.602 23.8661 324.379 26.0138 324.416 28.1541C324.468 31.1256 325.233 31.8758 328.163 31.5669C330.152 31.3609 330.3 32.6113 329.922 33.7293C329.017 36.3771 323.437 39.0323 320.536 38.4145C317.375 37.7378 315.69 35.9505 315.542 32.7069C315.394 29.2868 315.483 25.8593 315.438 22.4318C315.423 21.1962 315.327 19.9458 313.754 19.6369C312.871 19.4604 311.884 19.431 312.136 18.1806C312.374 17.0038 311.78 15.518 313.375 14.7972C316.707 13.2821 319.86 11.4727 322.955 9.53834C324.342 8.66308 325.722 9.54569 325.663 11.1712C325.641 11.7669 325.529 12.3701 325.374 12.9438C324.921 14.6207 325.284 15.2018 327.295 15.3856C329.595 15.5989 331.725 15.3047 333.921 14.9002C336.318 14.4589 338.744 14.1868 341.156 13.8117C343.931 13.3777 344.079 13.5322 343.642 16.1653C342.796 21.255 342.892 26.4036 342.788 31.5375C342.773 32.3906 342.788 33.5086 343.886 33.5822C346.661 33.7808 344.94 35.5166 345.007 36.5683C345.111 38.2012 343.953 38.1203 342.721 38.0835C339.501 37.9805 336.273 37.8776 333.046 38.2232C332.185 38.3115 330.746 39.0985 330.567 38.0026C330.352 36.6419 329.937 34.5604 331.591 33.847C333.676 32.9423 333.847 31.4786 333.847 29.706C333.847 27.3083 333.869 24.9105 333.825 22.5127C333.81 21.586 333.862 20.1223 332.89 20.0561C330.137 19.8649 330.167 18.0776 329.766 16.1506H329.774Z" fill="white"/>
<path d="M170.444 34.9872C170.496 34.8254 170.496 34.5679 170.608 34.5091C174.236 32.6482 173.19 29.3164 173.279 26.3523C173.309 25.4108 173.175 24.462 173.301 23.5353C173.665 20.8801 172.574 19.4679 169.829 19.3502C169.94 18.0557 170.044 16.7612 170.155 15.4594C173.583 14.893 177.026 14.4297 180.424 13.7236C182.658 13.2602 183.37 13.878 182.784 16.0184C182.68 16.3861 182.732 16.798 182.702 17.2687C183.956 17.1437 184.342 16.1507 185.017 15.5697C187.896 13.091 190.063 12.7968 193.565 14.5473C196.177 15.8492 197.179 17.9307 196.837 21.4538C196.526 24.6018 196.125 27.7424 195.843 30.8977C195.732 32.1481 195.472 33.6044 197.535 33.6633C198.856 33.7 198.499 34.7077 198.329 35.3623C198.084 36.3258 198.655 38.0763 197.053 38.0028C192.986 37.8262 188.905 38.4661 184.861 37.6938C185.002 36.4361 185.143 35.1858 185.284 33.928C186.383 33.2293 187.228 32.3908 186.976 30.9492C187.258 30.096 187.288 29.2428 187.013 28.3823C187.021 26.6024 187.087 24.8224 187.028 23.0498C186.984 21.7995 186.375 20.858 184.951 21.0125C183.778 21.1375 182.851 21.6671 182.784 23.0793C182.65 25.9625 182.428 28.8383 182.264 31.7141C182.19 33.0013 182.665 33.8692 184.157 33.8251C183.719 35.2961 185.002 37.4144 182.495 38.1204C179.044 37.9071 175.601 37.8851 172.158 38.1719C171.557 38.1719 170.956 38.1866 170.348 38.1866C170.289 37.6644 170.229 37.1422 170.163 36.6274C170.578 36.1346 170.712 35.5903 170.444 34.9798V34.9872Z" fill="white"/>
<path d="M247.427 25.6536C247.39 33.9869 242.737 38.5545 234.308 38.5324C227.022 38.5177 222.592 34.0164 222.614 26.6466C222.637 18.247 227.512 13.4147 235.866 13.4956C243.465 13.5692 247.464 17.7763 247.427 25.6536ZM237.402 27.3379C237.232 25.0064 237.484 23.0058 236.653 21.1376C236.275 20.2917 235.651 19.696 234.664 19.7401C233.655 19.7842 233.002 20.5124 232.884 21.3656C232.416 24.7636 232.268 28.1911 233.292 31.5303C233.574 32.4497 234.286 33.2661 235.414 33.0528C236.43 32.8616 237.083 32.0746 237.195 31.0596C237.343 29.6989 237.35 28.3309 237.395 27.3453L237.402 27.3379Z" fill="white"/>
<path d="M48.6972 24.2563C48.6972 19.0195 48.7492 14.7315 48.675 10.4508C48.6453 8.68557 49.2834 7.97948 51.1162 8.05303C53.9061 8.156 56.7034 8.05303 59.5007 8.09716C61.1183 8.11922 64.0789 10.7376 64.2644 12.2454C64.3979 13.3119 63.604 13.2752 62.8991 13.2825C60.5395 13.2972 58.18 13.3413 55.8278 13.2825C53.357 13.2163 52.3182 14.3637 52.4147 16.7247C52.4814 18.2619 52.4147 19.8065 52.4221 21.3511C52.4295 24.8889 52.8079 25.3449 56.4734 25.4258C60.6657 25.514 64.858 25.5435 69.0428 25.4111C71.0833 25.3449 71.8624 25.9333 71.7363 28.0074C71.5731 30.6553 71.625 33.3178 71.7215 35.973C71.8031 38.209 70.7865 39.1578 68.5754 38.9518C66.2381 38.7312 64.6799 39.0401 63.8637 41.8497C62.8917 45.1669 59.612 46.5791 55.865 46.2187C52.7189 45.9171 50.1887 43.6812 49.4021 40.467C48.0146 34.7962 49.046 29.0298 48.6972 24.2637V24.2563ZM56.6515 43.1295C59.4711 43.1663 61.6377 41.2907 61.6748 38.7679C61.7119 36.6129 59.2707 33.9577 57.1634 33.8621C54.6407 33.7444 52.3627 35.9068 52.2663 38.5105C52.1698 41.1216 54.0396 43.1001 56.644 43.1295H56.6515Z" fill="#F4BF6D"/>
<path d="M133.255 13.5251C140.868 13.4956 145.068 17.7469 145.053 25.4845C145.038 33.8251 140.356 38.5177 132.053 38.5398C124.537 38.5545 120.219 34.1855 120.241 26.5804C120.263 18.2323 124.923 13.5618 133.263 13.5324L133.255 13.5251ZM135.096 27.2423C134.969 25.2638 134.947 23.2853 134.309 21.395C133.99 20.4536 133.374 19.6813 132.239 19.7548C131.274 19.821 130.614 20.4462 130.436 21.3656C129.768 24.771 129.931 28.1691 130.829 31.5156C131.059 32.3762 131.749 33.0896 132.699 33.0749C133.76 33.0602 134.48 32.31 134.658 31.3023C134.895 29.9637 134.955 28.5957 135.096 27.235V27.2423Z" fill="white"/>
<path d="M213.718 38.0688C212.234 38.0688 210.75 38.1497 209.273 38.0393C208.435 37.9805 207.069 38.9293 206.839 37.5539C206.632 36.3035 206.424 34.5089 207.707 33.7734C209.362 32.8172 209.347 31.5007 209.355 30.0591C209.377 23.4689 209.355 16.8787 209.37 10.2885C209.37 8.22911 209.169 6.4124 206.35 6.61834C205.578 6.67718 205.111 6.21381 205.348 5.52243C205.719 4.41181 204.925 2.5951 206.602 2.28618C210.624 1.55803 214.69 1.05788 218.756 0.601864C220.277 0.432697 220.099 1.69042 219.913 2.58039C217.954 11.8037 218.593 21.1594 218.34 30.4709C218.296 32.0082 217.814 33.7513 220.574 33.8469C221.887 33.8911 221.004 35.3915 220.915 36.2079C220.804 37.1347 220.93 38.3188 219.223 38.1644C217.405 37.9952 215.565 38.1276 213.733 38.1276C213.733 38.1129 213.733 38.0982 213.733 38.0835L213.718 38.0688Z" fill="white"/>
<path d="M292.184 31.9272C292.503 30.9858 291.954 29.4927 293.787 29.5074C295.13 29.5148 296.792 28.5733 297.289 30.8828C297.46 31.6919 298.231 32.295 299.025 32.7216C300.198 33.3541 301.578 33.6704 302.312 32.4789C303.21 31.0299 301.556 30.6842 300.665 30.1988C299.604 29.6104 298.447 29.2059 297.334 28.7131C293.742 27.1244 292.132 24.8075 292.37 21.5639C292.622 18.1438 294.677 15.3562 298.239 14.4957C301.726 13.6498 305.303 13.1497 308.968 13.8999C311.105 14.3338 311.788 15.2459 311.239 17.2685C310.994 18.1732 310.986 19.1367 310.823 20.0635C310.63 21.152 311.016 22.5863 309.065 22.601C307.558 22.6157 306.074 22.9246 305.837 20.7548C305.733 19.8281 304.843 19.3868 303.967 19.1588C303.129 18.9381 302.349 19.1735 301.912 19.8943C301.407 20.7181 301.852 21.4536 302.594 21.8434C303.811 22.4906 305.058 23.1379 306.371 23.5424C309.755 24.5795 312.003 27.5142 311.943 30.927C311.899 33.5159 310.526 35.3253 308.382 36.5389C303.321 39.4074 298.031 38.9808 292.718 37.3038C291.806 37.017 291.665 36.2668 291.776 35.4283C291.902 34.4942 292.021 33.5601 292.14 32.6333C292.37 32.4127 292.384 32.1847 292.184 31.9346V31.9272Z" fill="white"/>
<path d="M376.675 38.5104C376.201 38.5104 375.503 38.5472 374.806 38.5104C369.204 38.1427 367.579 35.7228 369.3 30.486C369.693 29.2871 370.591 29.5372 371.392 29.4636C372.35 29.3754 373.47 28.8164 373.96 30.3463C374.464 31.9202 375.57 32.9867 377.321 33.1853C378.122 33.2809 378.983 33.2 379.362 32.3689C379.784 31.4275 379.013 30.9126 378.338 30.5669C377.024 29.8976 375.652 29.346 374.309 28.7428C371.2 27.3527 369.159 25.2345 369.315 21.6525C369.456 18.2471 371.496 15.6287 375.095 14.5181C378.82 13.3633 382.634 13.2456 386.462 14.0988C387.375 14.3048 388.317 14.5548 388.243 15.6066C388.102 17.6513 387.865 19.7034 387.472 21.7114C387.212 23.0353 385.928 22.491 385.06 22.594C384.214 22.6896 383.22 22.8955 383.042 21.6231C382.931 20.8214 382.619 20.13 381.973 19.6372C380.949 18.8576 379.814 18.6884 378.953 19.7549C378.004 20.9391 378.983 21.6746 379.933 22.1674C381.699 23.0941 383.591 23.7929 385.312 24.7932C390.202 27.6469 390.232 33.5457 385.401 36.5098C382.812 38.0912 379.94 38.6869 376.675 38.5178V38.5104Z" fill="white"/>
<path d="M160.146 14.5913C160.079 15.1429 160.005 15.6945 159.938 16.2388C159.76 16.8787 159.159 17.5333 160.049 18.3865C160.68 17.548 161.221 16.8199 161.763 16.0991C164.145 14.0102 167.454 13.5027 169.502 14.9149C168.975 16.305 169.042 17.7687 168.923 19.2103C168.716 20.9902 168.337 22.7775 168.345 24.5574C168.359 27.1391 166.445 26.3521 165.072 26.6316C163.18 27.014 163.203 25.8225 163.099 24.5574C163.01 23.4836 163.025 22.0935 161.437 22.1155C159.93 22.1376 159.827 23.3806 159.767 24.5427C159.656 26.5065 159.559 28.4777 159.352 30.4342C159.144 32.4568 159.686 33.6116 162.06 33.2438C162.906 33.1114 164.405 32.8172 163.856 34.3839C163.396 35.7004 164.575 38.2453 162.03 38.1791C157.578 38.0688 153.141 37.9511 148.689 38.157C148.125 38.1791 147.161 38.3262 147.346 37.4877C147.628 36.2226 146.916 34.3765 148.377 33.7954C150.344 33.0158 150.359 31.6625 150.344 30.0885C150.321 27.4333 150.321 24.7781 150.321 22.1229C150.321 21.0196 150.158 20.0267 148.786 19.8575C146.485 19.5707 147.168 17.8937 147.072 16.511C146.953 14.731 148.318 15.2459 149.209 15.1355C152.8 14.7016 156.302 13.5248 159.982 13.8558C159.841 14.1426 159.812 14.4074 160.138 14.5913H160.146Z" fill="white"/>
<path d="M284.846 37.9072C282.842 38.0249 280.846 38.2088 278.843 38.2382C277.938 38.2529 276.439 39.2238 276.231 37.8263C276.038 36.5539 275.816 34.5165 277.285 33.8913C279.496 32.9499 279.615 31.3832 279.6 29.5224C279.57 27.0364 279.6 24.5503 279.54 22.0717C279.503 20.6595 278.999 19.5047 277.248 19.5636C276.38 19.593 275.853 19.3576 276.105 18.4162C276.409 17.2908 275.578 15.5624 277.411 15.2241C280.921 14.5768 284.467 14.1502 287.999 13.6354C289.543 13.4073 289.825 14.209 289.55 15.4741C288.4 20.7036 288.697 26.014 288.608 31.3023C288.593 32.4276 288.496 33.4794 290.196 33.6927C292.251 33.9575 290.693 35.4359 290.819 36.3185C290.952 37.2379 290.782 38.2161 289.305 38.1058C287.829 37.9955 286.337 38.0837 284.861 38.0837C284.861 38.0249 284.861 37.966 284.861 37.8998L284.846 37.9072Z" fill="white"/>
<path d="M62.3575 23.1235C61.5784 23.1235 60.7919 23.1309 60.0128 23.1235C54.4404 23.072 54.8559 24.0208 54.8411 17.4895C54.8411 16.2023 55.3976 15.6213 56.7183 15.636C59.5008 15.6654 62.2833 15.5992 65.0584 15.6654C66.7576 15.7096 70.5046 20.6448 70.0223 22.1379C69.7255 23.0426 68.8871 23.0941 68.0931 23.1014C66.1788 23.1235 64.2719 23.1014 62.3575 23.1088V23.1235Z" fill="#F4BF6D"/>
<path d="M337.631 11.2817C334.589 11.2597 332.905 9.48707 332.942 6.34644C332.979 3.1102 334.908 1.18316 338.114 1.1758C341.178 1.16845 343.003 2.94838 343.026 5.95662C343.048 9.17816 340.896 11.3038 337.631 11.2744V11.2817Z" fill="white"/>
<path d="M288.697 6.00804C288.719 9.22222 286.797 11.2081 283.606 11.2817C280.527 11.3478 278.687 9.6194 278.635 6.58909C278.576 3.30136 280.646 1.18309 283.896 1.19045C286.99 1.20516 288.674 2.89683 288.697 6.00804Z" fill="white"/>
<path d="M6.21064 11.6202C6.73004 11.6202 7.24944 11.6202 7.76884 11.6202C8.91894 11.6202 9.90579 11.8924 9.86869 13.2678C9.83159 14.5402 8.72602 14.6652 7.80594 14.7167C6.52228 14.7903 5.20895 14.7829 3.94013 14.5917C3.14619 14.474 2.07029 14.1798 2.26321 13.0471C2.41161 12.1424 3.17587 11.6423 4.14789 11.6055C4.83795 11.5834 5.528 11.6055 6.21806 11.6055V11.6202H6.21064Z" fill="#F4BF6D"/>
<path d="M2.93088 21.5643C2.78248 22.5131 2.27792 23.1898 1.32074 23.2486C0.341305 23.3148 0.0519261 22.5572 0.00740622 21.7408C-0.0371137 20.917 0.207746 20.1374 1.15008 20.0786C2.1221 20.0124 2.64892 20.7111 2.93088 21.5717V21.5643Z" fill="#F4BF6D"/>
<path d="M366.54 32.4278C366.221 31.7217 365.902 31.0082 365.582 30.3021C365.278 29.7505 365.026 29.8388 364.811 30.3683C363.898 30.9126 362.911 31.2583 361.828 31.2804C361.642 31.5819 361.412 31.6408 361.13 31.4054C358.927 31.9864 357.613 30.8832 356.916 29.0371C356.026 26.6908 355.988 24.2415 356.612 21.807C357.51 20.792 358.541 20.0197 359.988 19.9829C360.121 20.108 360.255 20.2403 360.388 20.3654C360.841 20.5125 361.012 20.7993 360.819 21.2406C361.242 22.2262 360.426 23.5501 361.694 24.3077C362.088 24.2783 362.481 24.2562 362.874 24.2268C363.898 23.8149 365.33 24.7932 366.065 23.3368C365.798 22.7337 365.85 22.1821 366.295 21.6746C366.332 21.1818 366.369 20.689 366.414 20.1962C366.191 19.446 366.154 18.7178 366.718 18.0706C367.089 14.8564 366.48 14.0547 363.119 13.7458C361.301 13.5766 359.446 13.481 357.636 13.6428C352.575 14.0915 348.85 16.5996 347.218 21.3583C345.452 26.5216 345.875 31.5157 349.86 35.7376C350.943 36.8849 352.397 37.5101 353.911 37.9956C358.994 39.6284 363.097 37.6793 366.911 34.6196C367.942 33.7002 367.155 33.075 366.54 32.413V32.4278Z" fill="white"/>
</svg>
