<svg width="262" height="73" viewBox="0 0 262 73" fill="none" xmlns="http://www.w3.org/2000/svg">
<path d="M32.1186 72C30.9718 71.7475 29.8183 71.5427 28.6853 71.2355C17.4034 68.1502 9.92567 61.058 6.14903 50.0888C5.95677 49.529 5.7233 49.2355 5.12591 49.0717C2.55779 48.3618 0.77934 46.1229 0.504675 43.3925C0.264344 40.9283 1.69947 38.3345 4.00665 37.2014C4.63838 36.8874 4.94051 36.5461 5.04351 35.8021C7.00049 22.1092 17.7055 11.3379 31.48 9.26282C32.7366 9.0717 33.4713 8.71675 34.0275 7.50856C34.9407 5.52221 36.4995 4.64166 38.1612 5.03757C38.9783 5.23552 39.816 5.71333 40.4203 6.30036C41.7868 7.61094 42.4391 9.35839 42.9129 11.1604C42.9747 11.3925 42.8648 11.6724 42.8236 11.9318C42.6451 13.0239 42.4734 14.1229 42.2743 15.215C42.2194 15.5017 42.137 15.8635 41.931 16.0273C40.4478 17.215 38.7311 17.8021 36.8359 17.6246C34.3159 17.3925 32.6542 15.5154 32.6267 12.9966C32.6267 12.5188 32.6267 12.041 32.6267 11.5632C22.5122 12.1365 8.27082 21.4744 7.00736 38.6417C6.55416 38.7577 6.08037 38.8533 5.62717 39.0103C3.74572 39.6519 2.61959 41.5427 2.89426 43.5768C3.14145 45.3993 4.78258 46.9488 6.69149 47.0103C7.52235 47.0376 7.79702 47.3447 8.02362 48.0956C11.6217 60.0683 19.6076 67.3993 32.0018 69.4949C41.155 71.0444 49.3057 68.3345 56.1998 62.157C60.4983 58.3004 63.3205 53.5154 64.7693 47.9454C64.9204 47.3584 65.1126 47.0853 65.8199 47.0649C68.182 46.983 69.9055 45.3789 70.0566 43.256C70.2145 41.0034 68.7519 39.256 66.328 38.8055C66.1426 38.7714 65.9641 38.7167 65.7032 38.6553C65.4354 35.529 64.8036 32.4574 63.6089 29.5222C62.4141 26.5802 60.8004 23.8908 58.6992 21.4471C58.5756 21.5427 58.4658 21.6109 58.3765 21.6997C56.4264 23.8021 53.254 23.1877 51.8395 21.372C51.2009 20.5529 50.8164 19.5222 50.37 18.5598C50.267 18.3413 50.322 17.9659 50.4524 17.7475C51.1803 16.4847 51.5167 15.1536 51.4412 13.686C51.4206 13.3379 51.6678 12.8601 51.9493 12.6417C53.4119 11.4949 54.9638 10.4847 56.8315 10.1024C58.4864 9.76112 59.6056 10.3277 60.2511 11.8908C61.1849 14.1638 60.9171 16.4437 60.1687 18.7031C60.0313 19.1195 59.997 19.4198 60.3197 19.7816C64.4397 24.512 66.8911 30 67.7563 36.1775C67.8181 36.6144 67.9898 36.7987 68.3811 36.9693C70.9836 38.0819 72.5698 40.5871 72.3913 43.2423C72.1921 46.157 70.3175 48.4505 67.4816 49.1946C67.0078 49.3174 66.795 49.4949 66.6302 49.9727C62.3591 62.2594 53.8102 69.6109 40.8735 71.884C40.7499 71.9045 40.6263 71.9795 40.5096 72.0273H32.1117L32.1186 72Z" fill="white"/>
<path d="M139.286 49.1059C140.872 48.396 141.943 47.3243 142.932 46.1708C143.104 45.9728 143.042 45.5632 143.042 45.2493C143.056 38.6691 143.845 32.2049 145.953 25.9455C146.77 23.5086 147.787 21.1537 149.483 19.1605C150.602 17.8431 151.969 16.9762 153.774 16.9557C155.388 16.9421 156.48 17.7339 157.187 19.0923C158.224 21.0786 158.052 23.1878 157.633 25.2766C156.947 28.71 155.196 31.6452 153.081 34.3687C151.639 36.2254 150.046 37.9728 148.57 39.8022C148.261 40.1844 148.027 40.71 147.972 41.1946C147.876 42.0888 147.945 43.0035 147.945 44.1025C148.123 43.7271 148.24 43.4882 148.35 43.2493C149.332 41.0308 150.575 38.983 152.381 37.3175C153.63 36.1639 155.045 35.3175 156.816 35.2902C158.512 35.2629 159.453 36.1093 159.343 37.7749C159.213 39.768 158.849 41.7407 158.643 43.7271C158.416 45.9796 158.258 48.239 158.08 50.4984C158.052 50.8738 158.08 51.2493 158.032 51.6179C157.881 52.7168 157.331 53.2629 156.226 53.4677C154.035 53.8772 152.724 52.7646 152.944 50.5735C153.163 48.3209 153.5 46.0752 153.774 43.8226C153.85 43.2424 153.946 42.6554 153.96 42.0752C153.96 41.8158 153.795 41.5496 153.706 41.2834C153.445 41.3858 153.074 41.4062 152.944 41.5974C152.14 42.7237 151.234 43.8158 150.664 45.0581C149.854 46.8192 149.304 48.6964 148.645 50.5257C148.494 50.9489 148.391 51.3994 148.233 51.8158C147.746 53.1059 147.025 53.5974 145.747 53.5428C144.594 53.495 143.941 52.9353 143.55 51.6588C143.481 51.4336 143.42 51.2015 143.317 50.867C141.566 52.4438 139.485 52.9353 137.274 53.0786C137.034 53.0923 136.786 53.2629 136.567 53.4062C134.919 54.4574 133.147 54.669 131.314 54.0888C130.703 53.8977 130.119 53.4745 129.659 53.024C128.958 52.3414 128.78 51.4472 129.13 50.5052C129.48 49.5701 130.188 49.0103 131.183 48.9353C132.138 48.867 133.099 48.9216 134.177 48.9216C134.047 47.0172 132.818 45.6247 131.568 44.123C131.382 44.4301 131.231 44.6622 131.087 44.8943C129.556 47.4882 127.798 49.925 125.36 51.7475C124.42 52.4506 123.3 53.0786 122.167 53.3585C119.036 54.1366 116.763 52.4574 116.248 49.14C116.104 48.1981 116.077 47.2356 116.008 46.4916C114.291 46.3482 112.616 46.1912 110.941 46.0957C110.686 46.082 110.329 46.3209 110.158 46.5394C108.929 48.1912 107.775 49.8977 106.518 51.5291C105.736 52.5394 104.733 53.2834 103.387 53.4813C101.629 53.7407 100.284 53.0718 99.844 51.3653C99.4527 49.8568 99.3634 48.2663 99.1505 46.71C99.1162 46.4847 99.1162 46.2595 99.0887 45.8022C98.5051 47.1332 98.0656 48.2731 97.5094 49.3448C97.0219 50.2868 96.4794 51.2219 95.8271 52.0615C94.8795 53.2766 93.5542 53.7202 92.023 53.454C90.5329 53.1946 89.6883 52.1708 89.4343 50.8124C89.0635 48.8534 88.8163 46.8602 88.6858 44.8738C88.521 42.4779 88.5279 40.0752 88.4798 37.6725C88.4592 36.8192 88.5828 35.966 89.4823 35.5701C90.4986 35.1196 91.5767 35.0172 92.586 35.5632C93.2658 35.9318 93.2658 36.6759 93.2864 37.338C93.3208 38.6486 93.2864 39.9523 93.3551 41.2629C93.465 43.6042 93.6298 45.9455 93.9319 48.3482C94.0761 48.0684 94.2409 47.7885 94.3645 47.5018C95.8133 44.0888 97.2691 40.6759 98.6973 37.2561C99.3428 35.7134 100.098 35.1332 101.506 35.2356C102.755 35.3243 103.154 35.7407 103.195 36.9967C103.27 39.181 103.325 41.3721 103.415 43.5564C103.47 44.8875 103.573 46.2185 103.662 47.5496C103.682 47.8295 103.724 48.1093 103.95 48.4574C105.015 46.7987 106.086 45.1537 107.116 43.4745C107.233 43.2902 107.095 42.9216 107.013 42.6554C106.299 40.2527 106.704 38.1025 108.544 36.3278C108.956 35.9318 109.505 35.6179 110.041 35.4267C112.115 34.7032 113.824 35.8022 113.797 37.9728C113.783 39.3858 113.412 40.7919 113.186 42.3004C114.161 42.1503 115.266 42.0069 116.358 41.7953C116.523 41.7612 116.681 41.4267 116.743 41.2015C117.114 39.8363 117.402 38.4506 117.828 37.1059C118.356 35.4131 120.382 34.6622 121.961 35.5155C122.545 35.8295 122.689 36.3414 122.579 36.9489C122.167 39.1742 121.721 41.3994 121.35 43.6315C121.151 44.8124 121.041 46.0069 120.945 47.2015C120.918 47.5837 121.014 48.0001 121.144 48.3755C121.412 49.1537 122.106 49.495 122.806 49.065C123.589 48.5803 124.33 47.9728 124.955 47.297C127.723 44.3004 129.453 40.6895 131.06 37.0035C131.87 35.14 133.999 34.2322 135.859 35.0308C136.12 35.14 136.381 35.6656 136.34 35.9523C136.265 36.4916 136.024 37.0308 135.756 37.5155C134.843 39.1537 134.912 40.6691 136.23 42.0684C136.374 42.2254 136.505 42.396 136.635 42.5667C138.077 44.4848 139.787 46.28 139.293 49.0923L139.286 49.1059ZM148.473 35.1196L148.686 35.1878C151.069 32.2185 153.108 29.0581 153.836 25.2424C154.035 24.1912 153.974 23.0718 153.891 21.9933C153.857 21.5974 153.417 21.2356 153.163 20.8602C152.793 21.1196 152.36 21.3243 152.072 21.652C151.783 21.9865 151.57 22.4233 151.447 22.8465C150.671 25.5291 149.881 28.2117 149.201 30.9148C148.851 32.2868 148.714 33.7134 148.473 35.1127V35.1196Z" fill="white"/>
<path d="M239.985 47.4814C238.9 47.6453 237.897 47.9183 236.895 47.9115C233.963 47.891 232.411 45.9934 232.864 43.1197C232.933 42.676 232.974 42.2186 232.974 41.7681C232.974 41.2357 232.631 41.0924 232.225 41.3791C231.82 41.6726 231.436 42.0275 231.141 42.4303C229.424 44.7442 228.428 47.3791 227.659 50.1163C227.467 50.8057 227.254 51.4951 227.007 52.1709C226.629 53.1948 225.785 53.5429 224.768 53.5361C223.786 53.5361 222.956 53.0855 222.715 52.1504C222.365 50.792 222.2 49.3859 222.022 47.9934C221.939 47.3654 222.008 46.7238 222.008 46.0753C220.978 46.1913 220.023 46.3006 219.145 46.403C218.63 47.5156 218.238 48.6623 217.62 49.6726C215.395 53.2835 210.994 54.6077 207.464 52.7374C204.999 51.4337 203.805 49.2425 203.544 46.5736C203.18 42.8125 204.072 39.4132 207.19 36.9763C209.655 35.0514 212.477 34.5941 215.368 35.9456C217.51 36.949 218.561 38.8739 219.103 41.0855C219.193 41.4405 219.254 41.8091 219.351 42.2937C220.298 42.1436 221.225 42.0207 222.132 41.8364C222.283 41.8023 222.427 41.5019 222.482 41.2971C222.825 40.007 223.086 38.6965 223.477 37.4268C224.013 35.6999 226.073 34.7579 227.803 35.3586C228.353 35.5497 228.442 35.9866 228.339 36.4576C227.996 38.048 227.604 39.6248 227.261 41.2152C227.076 42.0685 226.959 42.9354 226.952 43.8432C227.281 43.1811 227.597 42.519 227.934 41.8637C228.888 39.9866 230.104 38.3006 231.731 36.9354C232.795 36.0412 233.997 35.3927 235.418 35.2903C237.52 35.1402 238.55 36.2255 238.282 38.3074C238.151 39.3108 237.938 40.3074 237.76 41.304C237.739 41.4337 237.698 41.5634 237.691 41.6999C237.65 42.3142 237.513 42.9968 238.158 43.3654C238.845 43.7545 239.483 43.3449 240.012 42.9559C240.239 42.7852 240.314 42.3688 240.39 42.048C240.768 40.519 241.049 38.9695 241.495 37.4678C242.017 35.7135 244.043 34.7442 245.773 35.3859C246.048 35.4883 246.357 35.9797 246.35 36.2733C246.323 36.9832 246.117 37.6862 245.966 38.3893C245.657 39.7954 245.32 41.1948 245.018 42.6009C244.942 42.949 244.929 43.3176 245.025 43.7135C245.361 43.0309 245.677 42.3415 246.048 41.6726C247.366 39.2767 248.904 37.0514 251.493 35.8569C252.249 35.5088 253.134 35.3245 253.972 35.304C255.49 35.2698 256.375 36.1436 256.293 37.6521C256.197 39.4337 255.874 41.1948 255.696 42.9763C255.448 45.4678 255.249 47.9661 255.029 50.4644C255.016 50.5941 255.029 50.7306 255.029 50.8671C254.975 53.0924 253.224 54.1982 251.136 53.3108C250.216 52.9217 249.873 52.1299 249.934 51.2289C250.072 49.263 250.292 47.304 250.504 45.3449C250.621 44.2596 250.793 43.1743 250.896 42.089C250.916 41.8296 250.752 41.5565 250.669 41.2903C250.388 41.3995 249.989 41.4268 249.838 41.6316C249.131 42.6009 248.335 43.5429 247.854 44.6282C246.989 46.5668 246.316 48.6009 245.574 50.5941C245.396 51.0651 245.286 51.5702 245.094 52.0344C244.627 53.1402 243.954 53.5634 242.786 53.5497C241.763 53.5361 240.932 53.0105 240.637 51.932C240.342 50.8603 240.239 49.734 240.074 48.635C240.012 48.246 240.019 47.8432 239.992 47.4814H239.985ZM212.113 39.461C211.227 39.3927 210.527 39.6862 209.868 40.4029C208.35 42.048 207.945 46.0412 209.099 47.9729C210.087 49.6316 211.976 49.9251 213.28 48.5053C213.85 47.8842 214.166 47.0173 214.551 46.2323C214.757 45.8159 214.647 45.4678 214.228 45.147C213.212 44.3688 212.601 43.2903 212.353 42.0617C212.189 41.2357 212.196 40.3825 212.12 39.4678L212.113 39.461Z" fill="white"/>
<path d="M196.128 37.6382C196.451 37.7747 196.595 37.8361 196.739 37.8908C200.385 39.3242 201.745 42.2798 200.433 45.9658C199.671 48.116 198.147 49.6109 196.196 50.703C193.47 52.2252 190.483 52.8873 187.407 53.0648C185.32 53.1809 183.219 53.0853 181.159 53.0853C180.135 54.9351 179.188 55.4334 177.121 55.2355C175.809 55.1058 175.164 54.471 175.226 53.1331C175.322 51.2696 175.48 49.4061 175.7 47.5563C176.393 41.802 177.485 36.1228 179.057 30.5392C179.538 28.8464 180.266 28.273 182.058 28.2594C182.642 28.2594 183.246 28.2662 183.816 28.389C184.777 28.587 185.107 29.0443 184.894 30.0068C184.599 31.3037 184.159 32.5665 183.83 33.8566C182.587 38.7235 181.701 43.6518 181.214 48.6757C181.31 48.7235 181.399 48.7986 181.495 48.8123C184.619 49.0648 187.751 49.1467 190.744 48.0819C191.87 47.686 193.003 47.0034 193.834 46.1638C195.874 44.1092 195.132 40.9829 192.406 40C191.266 39.5904 190.003 39.4539 188.787 39.331C187.448 39.1945 187.05 38.86 187.098 37.5563C187.16 35.8839 187.833 35.2286 189.57 35.174C191.85 35.0989 194.075 34.744 196.1 33.6518C196.863 33.2423 197.604 32.6894 198.188 32.0546C199.973 30.0955 199.568 27.3447 197.343 25.9044C195.633 24.7986 193.676 24.5392 191.713 24.4505C185.814 24.1911 180.232 25.3583 175.04 28.2321C174.471 28.546 173.804 28.7645 173.152 28.8669C172.362 28.9897 171.751 28.5187 171.635 27.7611C171.449 26.5597 171.587 25.3652 172.747 24.7303C174.573 23.7338 176.414 22.6826 178.378 22.0136C184.53 19.9181 190.854 19.3174 197.281 20.5733C199.389 20.9829 201.346 21.802 202.919 23.331C205.638 25.9795 205.975 30.1092 203.722 33.1809C202.074 35.4266 199.712 36.5733 197.117 37.3583C196.835 37.4402 196.547 37.5153 196.114 37.6382H196.128Z" fill="white"/>
<path d="M20.2256 46.1641H54.9501C54.7647 52.2938 52.2721 57.188 47.129 60.4712C40.8941 64.4508 34.3914 64.4644 28.1428 60.5258C22.9516 57.2562 20.4385 52.3347 20.2256 46.1641Z" fill="white"/>
<path d="M47.1153 10.7643C47.3213 9.26259 47.5754 7.81549 47.699 6.36156C47.802 5.1602 47.4518 4.02709 46.6965 3.07146C45.9823 2.17726 44.6708 2.06122 43.8331 2.8462C43.6134 3.05098 43.476 3.5288 43.5584 3.82231C43.6958 4.34791 44.0048 4.83938 44.2794 5.32402C44.6502 5.96566 44.5953 6.59365 44.0872 6.9759C43.5653 7.3718 42.9404 7.30354 42.4254 6.77795C41.2169 5.53562 40.8598 4.04074 41.3474 2.423C41.5122 1.88375 41.9516 1.33085 42.4117 0.982723C44.712 -0.737413 47.6166 -0.116253 49.038 2.36839C49.3401 2.89399 49.553 3.47419 49.8208 4.0544C50.9675 3.54928 52.1417 3.20115 53.4051 3.54928C56.0488 4.27965 56.9071 6.30696 56.7767 8.77112C56.7423 9.42641 56.2479 9.78818 55.6231 9.78136C54.957 9.77453 54.5381 9.3718 54.4763 8.67556C54.442 8.25235 54.4351 7.82231 54.3527 7.40593C54.1605 6.45713 53.5082 5.87692 52.5331 5.74723C51.7228 5.63801 50.7478 6.09535 50.3701 6.81207C49.6216 8.22504 48.9007 9.64484 48.1797 11.0578C50.116 12.2933 50.8851 14.1773 49.8002 16.266C49.0105 17.7745 47.1428 18.4708 45.5017 17.9452C43.8949 17.4332 42.7962 15.795 42.9748 14.1773C43.2014 12.1227 44.5335 11.01 47.1153 10.7779V10.7643Z" fill="white"/>
<path d="M121.261 32.7441C118.988 32.7441 117.814 31.6383 118.027 29.5768C118.089 29.0103 118.377 28.3891 118.755 27.9523C119.936 26.5802 122.367 26.2731 123.918 27.2082C125.443 28.1229 125.539 30.5666 124.09 31.843C123.28 32.5529 122.318 32.7987 121.261 32.7509V32.7441Z" fill="white"/>
<path d="M256.829 30.3687C254.192 30.3687 252.077 28.3209 252.07 25.7407C252.07 23.1673 254.199 21.0513 256.801 21.0513C259.383 21.0513 261.47 23.1059 261.491 25.6724C261.512 28.3072 259.472 30.3687 256.835 30.3755L256.829 30.3687ZM260.756 25.6997C260.743 23.5564 258.937 21.7816 256.781 21.7885C254.611 21.8021 252.825 23.5769 252.825 25.7202C252.825 27.8636 254.618 29.6656 256.76 29.6793C258.95 29.6929 260.763 27.884 260.756 25.6997Z" fill="white"/>
<path d="M38.1405 36.7783C39.6993 36.8466 41.2374 37.7203 42.2605 39.4473C42.4802 39.8227 42.7 40.2732 42.1987 40.5667C41.6837 40.8671 41.4503 40.4575 41.2237 40.0548C40.4065 38.6282 39.1431 37.8978 37.502 37.9661C35.8196 38.0343 34.6248 38.9149 33.9382 40.4302C33.7459 40.8602 33.5468 41.2766 33.0112 41.0309C32.4825 40.7852 32.6953 40.3073 32.8533 39.9114C33.6086 38.0343 35.5656 36.7647 38.1405 36.7715V36.7783Z" fill="white"/>
<path d="M27.1402 39.2149C26.2269 39.2012 25.506 38.464 25.5266 37.563C25.5472 36.6688 26.3025 35.9384 27.1951 35.9589C28.1015 35.9726 28.8157 36.7098 28.8019 37.6244C28.7882 38.5323 28.0603 39.2354 27.1402 39.2217V39.2149Z" fill="white"/>
<path d="M46.0305 38.2866C46.0167 37.3855 46.7309 36.6415 47.6373 36.621C48.5368 36.6006 49.2852 37.3173 49.299 38.2251C49.3196 39.1398 48.6192 39.8565 47.6922 39.877C46.7721 39.8975 46.0373 39.1944 46.0305 38.2866Z" fill="white"/>
<path d="M257.522 25.7476C257.762 26.4643 257.975 27.1127 258.195 27.768C257.563 27.8977 257.536 27.8977 257.392 27.181C257.241 26.4506 256.987 25.8909 255.957 26.1093V27.8704C255.867 27.9045 255.785 27.9319 255.696 27.966C255.579 27.7953 255.366 27.6315 255.366 27.4609C255.339 26.2117 255.352 24.9557 255.352 23.6383C256.293 23.5974 257.268 23.2083 257.893 24.1571C258.291 24.7646 258.051 25.3858 257.522 25.7407V25.7476ZM255.909 25.4813C256.973 25.6179 257.46 25.3858 257.447 24.7987C257.426 24.1639 256.952 23.9592 256.444 24.0342C255.476 24.1912 256.135 24.9557 255.909 25.4745V25.4813Z" fill="white"/>
</svg>
