<svg width="198" height="65" viewBox="0 0 198 65" fill="none" xmlns="http://www.w3.org/2000/svg">
<path d="M32.5705 62.5972C32.1687 62.9636 31.7905 63.2236 31.4478 63.3772C31.0459 63.5545 30.6087 63.6372 30.1359 63.6372C29.5805 63.6372 29.0604 63.5072 28.5995 63.259C28.1386 63.0108 27.7722 62.6563 27.524 62.2308C27.2759 61.8053 27.1458 61.2972 27.1458 60.7417C27.1458 59.938 27.4295 59.2526 28.0086 58.7089C28.5759 58.1653 29.285 57.8816 30.1123 57.8816C31.0223 57.8816 31.8496 58.2244 32.5823 58.9216L33.3505 58.2125C32.9487 57.7989 32.4878 57.4798 31.9678 57.2552C31.3887 56.9952 30.7623 56.8652 30.1359 56.8652C29.3914 56.8652 28.6941 57.0425 28.0441 57.3852C27.4059 57.728 26.9095 58.2007 26.5549 58.768C26.2122 59.3353 26.0349 60.0089 26.0349 60.7417C26.0349 61.8881 26.4131 62.8336 27.1695 63.5545C27.9259 64.2872 28.9068 64.6536 30.1005 64.6536C30.7505 64.6536 31.3296 64.5472 31.826 64.3463C32.2869 64.1572 32.7714 63.8263 33.2914 63.3654L32.5469 62.6208L32.5705 62.5972Z" fill="#4A4A4A"/>
<path d="M43.9516 57.9764C43.1598 57.2082 42.2498 56.8418 41.1625 56.8418C40.4534 56.8418 39.7797 57.0191 39.1652 57.3618C38.5506 57.7045 38.0542 58.1891 37.6997 58.78C37.3451 59.3709 37.1678 60.0328 37.1678 60.7419C37.1678 61.8174 37.546 62.7156 38.3142 63.4956C39.0824 64.2756 40.0161 64.6538 41.1743 64.6538C42.3325 64.6538 43.1953 64.2874 43.9753 63.531C44.7553 62.7747 45.1217 61.8765 45.1217 60.7773C45.1217 59.6782 44.7435 58.7682 43.9516 58V57.9764ZM43.1953 62.7865C42.6398 63.342 41.9661 63.6138 41.1743 63.6138C40.477 63.6138 39.8625 63.401 39.3188 62.9756C38.6333 62.4319 38.2788 61.6874 38.2788 60.7537C38.2788 59.9264 38.5624 59.2291 39.1061 58.6855C39.6497 58.1418 40.3352 57.87 41.1389 57.87C41.9425 57.87 42.628 58.1536 43.1834 58.7091C43.7389 59.2646 44.0226 59.9501 44.0226 60.7419C44.0226 61.5337 43.7389 62.231 43.1953 62.7747V62.7865Z" fill="#4A4A4A"/>
<path d="M54.2928 62.6799L53.891 62.089L50.6173 57.0425H49.3645V64.4408H50.4636V58.8153L50.8654 59.4062L54.1392 64.4408H55.3919V57.0425H54.2928V62.6799Z" fill="#4A4A4A"/>
<path d="M63.9721 62.6328C63.9721 62.3256 63.913 62.0537 63.7948 61.8056C63.6766 61.5574 63.4757 61.2737 63.1803 60.9901C63.0621 60.8719 62.7075 60.5764 62.1284 60.1037C61.4548 59.56 61.1002 59.2291 60.9702 59.0637C60.852 58.91 60.7929 58.7446 60.7929 58.5673C60.7929 58.4373 60.8402 58.2364 61.0648 58.0473C61.2302 57.9055 61.443 57.8464 61.703 57.8464C62.1402 57.8464 62.5539 58.0827 62.9557 58.5555L63.7594 57.87C63.4048 57.4918 63.0739 57.2318 62.7784 57.09C62.4475 56.9245 62.093 56.8418 61.7266 56.8418C61.1475 56.8418 60.6866 57.0191 60.2966 57.3618C59.9184 57.7164 59.7293 58.1182 59.7293 58.6027C59.7293 58.9337 59.8475 59.2764 60.072 59.6191C60.3202 59.9855 60.8757 60.5055 61.7384 61.1792C62.223 61.5574 62.5184 61.841 62.6721 62.0301C62.8375 62.2428 62.9203 62.4674 62.9203 62.6919C62.9203 62.9519 62.8021 63.1765 62.5775 63.3656C62.3648 63.5429 62.093 63.6374 61.7739 63.6374C61.2302 63.6374 60.7575 63.3183 60.3557 62.6801L59.422 63.2238C59.682 63.6847 60.0011 64.0274 60.3557 64.252C60.7457 64.5002 61.2066 64.6302 61.7384 64.6302C62.4239 64.6302 62.9557 64.4411 63.3812 64.0629C63.7948 63.6847 63.9957 63.2119 63.9957 62.6328H63.9721Z" fill="#4A4A4A"/>
<path d="M72.0914 61.6992C72.0914 62.2664 72.056 62.6328 71.9614 62.8455C71.8669 63.0701 71.7014 63.2592 71.4651 63.401C71.2287 63.5428 70.9569 63.6137 70.6496 63.6137C70.3423 63.6137 70.0941 63.5428 69.8814 63.4247C69.6568 63.2947 69.5032 63.1174 69.4086 62.8928C69.3141 62.6801 69.2668 62.361 69.2668 61.8883V57.0427H68.1559V61.4982C68.1559 62.3964 68.2386 63.0346 68.4159 63.3892C68.5813 63.7437 68.865 64.0392 69.2668 64.2756C69.6568 64.512 70.1414 64.6301 70.685 64.6301C71.0987 64.6301 71.4651 64.571 71.7723 64.441C72.0796 64.311 72.3514 64.1219 72.5878 63.8619C72.8242 63.6019 72.9778 63.3301 73.0605 63.0583C73.1433 62.7746 73.1905 62.2428 73.1905 61.4746V57.019H72.0796V61.6873L72.0914 61.6992Z" fill="#4A4A4A"/>
<path d="M78.8634 57.0425H77.7643V64.4408H81.1089V63.4363H78.8634V57.0425Z" fill="#4A4A4A"/>
<path d="M84.2644 58.0825H85.6944V64.4408H86.8172V58.0825H88.2945V57.0425H84.2644V58.0825Z" fill="#4A4A4A"/>
<path d="M96.9575 62.8336L97.5838 64.4409H98.7184L95.7756 57.0308H94.511L91.5682 64.4409H92.7028L93.3646 62.8336H96.9575ZM95.1611 58.319L96.5556 61.7936H93.7665L95.1729 58.319H95.1611Z" fill="#4A4A4A"/>
<path d="M107.724 62.6799L107.334 62.089L104.06 57.0425H102.796V64.4408H103.907V58.8153L104.297 59.4062L107.57 64.4408H108.835V57.0425H107.724V62.6799Z" fill="#4A4A4A"/>
<path d="M120.323 63.3418L119.578 62.5972C119.176 62.9636 118.798 63.2236 118.455 63.3772C118.053 63.5545 117.616 63.6372 117.143 63.6372C116.588 63.6372 116.068 63.5072 115.607 63.259C115.146 63.0108 114.78 62.6563 114.531 62.2308C114.283 61.8053 114.153 61.2972 114.153 60.7417C114.153 59.938 114.437 59.2526 115.016 58.7089C115.583 58.1653 116.292 57.8816 117.12 57.8816C118.03 57.8816 118.857 58.2244 119.59 58.9216L120.358 58.2125C119.956 57.7989 119.495 57.4798 118.975 57.2552C118.396 56.9952 117.77 56.8652 117.143 56.8652C116.399 56.8652 115.702 57.0425 115.051 57.3852C114.413 57.728 113.917 58.2007 113.562 58.768C113.208 59.3353 113.042 60.0089 113.042 60.7417C113.042 61.8881 113.421 62.8336 114.177 63.5545C114.933 64.2872 115.914 64.6536 117.108 64.6536C117.758 64.6536 118.337 64.5472 118.845 64.3463C119.306 64.1572 119.791 63.8263 120.311 63.3654L120.323 63.3418Z" fill="#4A4A4A"/>
<path d="M128.572 57.0425L126.941 60.1035L125.298 57.0425H124.14L126.374 61.2617V64.4408H127.485L127.508 61.1671L129.718 57.0425H128.572Z" fill="#4A4A4A"/>
<path d="M140.497 57.0425H139.386V64.4408H142.73V63.4363H140.497V57.0425Z" fill="#4A4A4A"/>
<path d="M147.765 63.9681C147.765 63.7908 147.706 63.649 147.576 63.5308C147.446 63.4126 147.304 63.3535 147.115 63.3535C146.926 63.3535 146.784 63.4126 146.654 63.5308C146.524 63.649 146.465 63.7908 146.465 63.9681C146.465 64.1454 146.524 64.2872 146.654 64.4054C146.784 64.5235 146.926 64.5945 147.115 64.5945C147.304 64.5945 147.446 64.5354 147.576 64.4172C147.706 64.2872 147.765 64.1454 147.765 63.9799V63.9681Z" fill="#4A4A4A"/>
<path d="M153.284 57.0425H152.173V64.4408H155.518V63.4363H153.284V57.0425Z" fill="#4A4A4A"/>
<path d="M160.364 63.5308C160.234 63.4126 160.092 63.3535 159.914 63.3535C159.737 63.3535 159.584 63.4126 159.454 63.5308C159.324 63.649 159.264 63.7908 159.264 63.9681C159.264 64.1454 159.324 64.2872 159.454 64.4054C159.584 64.5235 159.725 64.5945 159.914 64.5945C160.104 64.5945 160.245 64.5354 160.364 64.4172C160.494 64.2872 160.553 64.1454 160.553 63.9799C160.553 63.8144 160.494 63.6608 160.364 63.5426V63.5308Z" fill="#4A4A4A"/>
<path d="M171.095 62.5972C170.693 62.9636 170.326 63.2236 169.972 63.3772C169.57 63.5545 169.133 63.6372 168.66 63.6372C168.105 63.6372 167.585 63.5072 167.124 63.259C166.663 63.0108 166.296 62.6563 166.048 62.2308C165.8 61.7935 165.67 61.2972 165.67 60.7417C165.67 59.938 165.954 59.2526 166.533 58.7089C167.1 58.1653 167.809 57.8816 168.636 57.8816C169.546 57.8816 170.374 58.2244 171.107 58.9216L171.875 58.2125C171.485 57.7989 171.012 57.4798 170.492 57.2552C169.913 56.9952 169.286 56.8652 168.66 56.8652C167.916 56.8652 167.218 57.0425 166.568 57.3852C165.93 57.728 165.434 58.2007 165.079 58.768C164.736 59.3353 164.559 60.0089 164.559 60.7417C164.559 61.8881 164.937 62.8336 165.694 63.5545C166.45 64.2872 167.431 64.6536 168.625 64.6536C169.275 64.6536 169.854 64.5472 170.362 64.3463C170.823 64.1572 171.307 63.8263 171.827 63.3654L171.083 62.6208L171.095 62.5972Z" fill="#4A4A4A"/>
<path d="M9.90261 49.6209C10.1153 49.2899 10.2217 48.9354 10.2217 48.5335C10.2217 48.1317 10.1272 47.7653 9.91443 47.4581C9.71351 47.1508 9.3826 46.9026 8.92167 46.6899L8.59076 46.5362L8.88622 46.3235C9.14623 46.1344 9.34714 45.9335 9.45351 45.7089C9.57169 45.4962 9.61896 45.2598 9.61896 44.988C9.61896 44.5744 9.50078 44.2316 9.24077 43.9243C8.98077 43.6171 8.63803 43.4162 8.20075 43.298C7.88165 43.2152 7.36164 43.168 6.64071 43.168H5.58887V50.5781H7.63346C8.24802 50.5781 8.73258 50.4954 9.0635 50.33C9.39441 50.1645 9.66624 49.9281 9.87897 49.5972L9.90261 49.6209ZM6.6998 44.1962H7.31436C7.71619 44.1962 8.03529 44.2789 8.24802 44.4562C8.47257 44.6453 8.57894 44.8935 8.57894 45.2007C8.57894 45.5317 8.46075 45.7917 8.2362 45.9808C8.01165 46.1699 7.69255 46.2644 7.25527 46.2644H6.6998V44.1962ZM8.72076 49.3254C8.46075 49.5145 7.99983 49.5972 7.30254 49.5972H6.6998V47.1744H7.23163C7.89347 47.1744 8.35439 47.2808 8.66167 47.5053C8.98077 47.7417 9.13441 48.0726 9.13441 48.4745C9.13441 48.8408 8.99259 49.1363 8.70894 49.3254H8.72076Z" fill="#4A4A4A"/>
<path d="M18.3409 47.8597C18.3409 48.427 18.3055 48.7815 18.2109 48.9943C18.1164 49.2188 17.9509 49.4079 17.7146 49.5497C17.4782 49.6916 17.2064 49.7625 16.8991 49.7625C16.5918 49.7625 16.3436 49.7034 16.1309 49.5734C15.9063 49.4434 15.7527 49.2661 15.6582 49.0415C15.5636 48.8288 15.5163 48.5097 15.5163 48.037V43.1914H14.4054V47.647C14.4054 48.5452 14.4881 49.1834 14.6654 49.5497C14.8309 49.9043 15.1145 50.1998 15.5163 50.4361C15.9182 50.6725 16.3909 50.8025 16.9345 50.8025C17.3482 50.8025 17.7146 50.7434 18.0218 50.6134C18.3291 50.4834 18.601 50.2943 18.8373 50.0343C19.0737 49.7743 19.2273 49.5025 19.3101 49.2306C19.3928 48.947 19.4401 48.4152 19.4401 47.647V43.1914H18.3291V47.8597H18.3409Z" fill="#4A4A4A"/>
<path d="M27.3467 48.7935C27.3467 48.4862 27.2876 48.2144 27.1695 47.9662C27.0513 47.7062 26.8385 47.4344 26.5549 47.1507C26.4367 47.0325 26.0822 46.7371 25.5031 46.2643C24.6403 45.5552 24.4276 45.3307 24.3448 45.2243C24.2267 45.0707 24.1676 44.9052 24.1676 44.7279C24.1676 44.5979 24.2148 44.397 24.4394 44.2079C24.6049 44.0661 24.8176 44.007 25.0776 44.007C25.5149 44.007 25.9285 44.2434 26.3304 44.7161L27.134 44.0307C26.7795 43.6525 26.4604 43.3925 26.1531 43.2506C25.8222 43.0852 25.4676 43.0024 25.1012 43.0024C24.5221 43.0024 24.0612 43.1797 23.6712 43.5343C23.2812 43.877 23.1039 44.2907 23.1039 44.7752C23.1039 45.1061 23.2221 45.4489 23.4466 45.7916C23.6948 46.1462 24.2503 46.678 25.113 47.3516C25.5858 47.7298 25.8931 48.0135 26.0467 48.2026C26.2122 48.4153 26.2949 48.6399 26.2949 48.8644C26.2949 49.1244 26.1767 49.349 25.9522 49.5381C25.7394 49.7153 25.4676 49.8099 25.1485 49.8099C24.6167 49.8099 24.1321 49.4908 23.7303 48.8526L22.7966 49.3962C23.0566 49.8572 23.3757 50.2117 23.7303 50.4244C24.1203 50.6726 24.5812 50.8026 25.113 50.8026C25.7985 50.8026 26.3304 50.6135 26.7558 50.2353C27.1695 49.8572 27.3704 49.3844 27.3704 48.7935H27.3467Z" fill="#4A4A4A"/>
<path d="M32.5705 43.1914H31.4832V50.6016H32.5705V43.1914Z" fill="#4A4A4A"/>
<path d="M42.0134 48.8406L41.6234 48.2497L38.3497 43.1914H37.0851V50.6016H38.196V44.9642L38.586 45.5669L41.8597 50.6016H43.1243V43.1914H42.0134V48.8406Z" fill="#4A4A4A"/>
<path d="M47.7572 50.6016H51.7282V49.5497H48.8445V47.0797H51.7282V46.0633H48.8445V44.2314H51.7282V43.1914H47.7572V50.6016Z" fill="#4A4A4A"/>
<path d="M59.7174 47.9662C59.5993 47.7062 59.3865 47.4344 59.1029 47.1507C58.9847 47.0325 58.6301 46.7371 58.051 46.2643C57.1883 45.5552 56.9755 45.3307 56.8928 45.2243C56.7746 45.0707 56.7155 44.9052 56.7155 44.7279C56.7155 44.5979 56.7628 44.397 56.9874 44.2079C57.1528 44.0661 57.3656 44.007 57.6256 44.007C58.0629 44.007 58.4765 44.2434 58.8783 44.7161L59.682 44.0307C59.3274 43.6525 59.0083 43.3925 58.701 43.2506C58.3701 43.0852 58.0156 43.0024 57.6492 43.0024C57.0701 43.0024 56.6092 43.1797 56.2192 43.5343C55.8292 43.877 55.6519 44.2907 55.6519 44.7752C55.6519 45.1061 55.7701 45.4489 55.9946 45.7916C56.2428 46.1462 56.7983 46.678 57.661 47.3516C58.1338 47.7298 58.441 48.0135 58.5947 48.2026C58.7601 48.4153 58.8429 48.6399 58.8429 48.8644C58.8429 49.1244 58.7247 49.349 58.5001 49.5381C58.2874 49.7153 58.0156 49.8099 57.6965 49.8099C57.1646 49.8099 56.6801 49.4908 56.2783 48.8526L55.3446 49.3962C55.6046 49.8572 55.9237 50.2117 56.2783 50.4363C56.6683 50.6844 57.1292 50.8144 57.661 50.8144C58.3465 50.8144 58.8783 50.6254 59.3038 50.2472C59.7174 49.869 59.9183 49.3962 59.9183 48.8053C59.9183 48.5099 59.8593 48.2262 59.7411 47.978L59.7174 47.9662Z" fill="#4A4A4A"/>
<path d="M68.0849 48.7935C68.0849 48.4862 68.0258 48.2144 67.9076 47.9662C67.7894 47.718 67.5885 47.4344 67.2931 47.1507C67.1749 47.0325 66.8203 46.7371 66.2412 46.2643C65.3785 45.5552 65.1657 45.3307 65.083 45.2243C64.9648 45.0707 64.9057 44.9052 64.9057 44.7279C64.9057 44.5979 64.953 44.397 65.1776 44.2079C65.343 44.0661 65.5557 44.007 65.8158 44.007C66.253 44.007 66.6667 44.2434 67.0685 44.7161L67.8722 44.0307C67.5176 43.6525 67.1867 43.3925 66.8912 43.2506C66.5603 43.0852 66.2058 43.0024 65.8394 43.0024C65.2603 43.0024 64.7994 43.1797 64.4094 43.5343C64.0193 43.877 63.8421 44.2907 63.8421 44.7752C63.8421 45.1061 63.9603 45.4489 64.1848 45.7916C64.433 46.1462 64.9885 46.678 65.8512 47.3516C66.3239 47.7298 66.6312 48.0135 66.7849 48.2026C66.9503 48.4153 67.0331 48.6399 67.0331 48.8644C67.0331 49.1244 66.9149 49.349 66.6903 49.5381C66.4776 49.7153 66.2058 49.8099 65.8867 49.8099C65.3548 49.8099 64.8703 49.4908 64.4684 48.8526L63.5348 49.3962C63.7948 49.8572 64.1139 50.2117 64.4684 50.4244C64.8585 50.6726 65.3194 50.8026 65.8512 50.8026C66.5367 50.8026 67.0685 50.6135 67.494 50.2353C67.9076 49.8572 68.1085 49.3844 68.1085 48.7935H68.0849Z" fill="#4A4A4A"/>
<path d="M83.5553 50.6018L82.4562 49.4673L83.2835 48.7345L82.6453 48.0254C82.2553 48.3445 82.0071 48.5454 81.9008 48.6163L81.7471 48.7345L81.6171 48.6045C81.428 48.4154 81.0026 47.9427 80.3407 47.1981L80.2107 47.0563L80.3525 46.9145C81.0262 46.2763 81.2862 45.9217 81.3926 45.7444C81.5344 45.5081 81.5935 45.2599 81.5935 44.9881C81.5935 44.669 81.4398 44.3262 81.1444 43.9953C80.8489 43.6644 80.4234 43.5107 79.8443 43.5107C79.2652 43.5107 78.8516 43.6762 78.5561 44.0071C78.2488 44.3499 78.0952 44.6808 78.0952 45.0117C78.0952 45.4844 78.3434 46.0399 78.828 46.6899L78.958 46.8554L78.7925 46.9854C78.2961 47.3636 77.9416 47.7181 77.7407 48.0609C77.5397 48.4036 77.4452 48.7581 77.4452 49.1363C77.4452 49.6327 77.6106 50.0227 77.9534 50.33C78.2961 50.6491 78.7452 50.8027 79.3007 50.8027C79.9862 50.8027 80.7425 50.5664 81.558 50.1054L81.6998 50.0227L81.818 50.1409L82.1962 50.6136H83.5553V50.6018ZM79.348 44.6571C79.478 44.5271 79.6552 44.4444 79.8562 44.4444C80.0689 44.4444 80.2343 44.5035 80.3644 44.6335C80.4944 44.7635 80.5653 44.9171 80.5653 45.1181C80.5653 45.4372 80.3407 45.7917 79.8798 46.1699L79.7025 46.3117L79.5607 46.1344C79.2652 45.7681 79.1234 45.4372 79.1234 45.1299C79.1234 44.9526 79.1943 44.7871 79.3361 44.6453L79.348 44.6571ZM80.778 49.42C80.2462 49.7154 79.8089 49.8691 79.4425 49.8691C79.1589 49.8691 78.9225 49.7863 78.7334 49.6327C78.4852 49.42 78.4379 49.2072 78.4379 49.0536C78.4379 48.6636 78.7334 48.2263 79.3243 47.7418L79.4898 47.5999L79.6316 47.7654C80.1398 48.38 80.5298 48.8172 80.8135 49.0891L81.0144 49.2782L80.7662 49.42H80.778Z" fill="#4A4A4A"/>
<path d="M99.8529 45.8387L100.692 50.6016H101.744L100.456 43.1914H99.2974L97.2528 49.1006L95.2319 43.1914H94.0619L92.75 50.6016H93.8018L94.6646 45.8269L95.0782 45.8033L96.7328 50.6016H97.7728L99.4392 45.8033L99.8529 45.8387Z" fill="#4A4A4A"/>
<path d="M110.619 48.9943L111.258 50.6016H112.392L109.449 43.1914H108.185L105.242 50.6016H106.377L107.038 48.9943H110.631H110.619ZM108.823 44.4796L110.218 47.9542H107.428L108.835 44.4796H108.823Z" fill="#4A4A4A"/>
<path d="M121.386 48.8406L120.984 48.2497L117.711 43.1914H116.458V50.6016H117.557V44.9642L117.959 45.5669L121.221 50.6016H122.485V43.1914H121.386V48.8406Z" fill="#4A4A4A"/>
<path d="M131.94 48.9943L132.566 50.6016H133.701L130.758 43.1914H129.494L126.551 50.6016H127.685L128.347 48.9943H131.94ZM130.155 44.4796L131.55 47.9542H128.761L130.167 44.4796H130.155Z" fill="#4A4A4A"/>
<path d="M144.858 49.0175C145.2 48.4383 145.378 47.8238 145.378 47.1856V47.0556H141.738V48.0365H144.196L144.054 48.332C143.818 48.8284 143.487 49.2065 143.085 49.4429C142.695 49.6793 142.199 49.7975 141.631 49.7975C140.757 49.7975 140.012 49.5138 139.421 48.9584C138.83 48.3911 138.523 47.6938 138.523 46.8901C138.523 46.0865 138.819 45.4246 139.386 44.881C139.965 44.3373 140.686 44.0537 141.537 44.0537C142.435 44.0537 143.239 44.3728 143.936 45.0228L144.716 44.2782C144.29 43.8646 143.853 43.5573 143.416 43.38C142.837 43.1437 142.199 43.0137 141.525 43.0137C140.249 43.0137 139.209 43.451 138.417 44.3137C137.755 45.0346 137.412 45.8974 137.412 46.8783C137.412 47.5992 137.589 48.2729 137.956 48.8875C138.322 49.502 138.819 49.9866 139.433 50.3175C140.059 50.6484 140.78 50.8257 141.572 50.8257C142.317 50.8257 142.967 50.672 143.51 50.3648C144.054 50.0575 144.503 49.6202 144.858 49.0411V49.0175Z" fill="#4A4A4A"/>
<path d="M149.573 50.6016H153.544V49.5497H150.672V47.0797H153.544V46.0633H150.672V44.2314H153.544V43.1914H149.573V50.6016Z" fill="#4A4A4A"/>
<path d="M164.299 45.8387L165.138 50.6016H166.19L164.902 43.1914H163.744L161.699 49.1006L159.678 43.1914H158.508L157.196 50.6016H158.248L159.111 45.8269L159.524 45.8033L161.179 50.6016H162.219L163.885 45.8033L164.299 45.8387Z" fill="#4A4A4A"/>
<path d="M170.232 50.6016H174.215V49.5497H171.331V47.0797H174.215V46.0633H171.331V44.2314H174.215V43.1914H170.232V50.6016Z" fill="#4A4A4A"/>
<path d="M183.362 48.8406L182.96 48.2497L179.687 43.1914H178.434V50.6016H179.533V44.9642L179.935 45.5669L183.197 50.6016H184.461V43.1914H183.362V48.8406Z" fill="#4A4A4A"/>
<path d="M188.291 44.2432H189.732V50.6016H190.855V44.2432H192.321V43.1914H188.291V44.2432Z" fill="#4A4A4A"/>
<path d="M6.15606 18.9043V23.7972C6.15606 25.5936 8.29521 27.0591 13.1881 27.0591H33.1967C34.5322 27.0591 34.8277 27.8155 34.8277 29.3164C34.8277 30.8174 34.5322 31.5737 33.1967 31.5737H13.0226C4.7733 31.5737 0.636841 28.9737 0.636841 23.7854V9.03593C0.636841 3.80035 4.78512 1.24756 13.0226 1.24756H19.2627C20.5628 1.24756 20.8582 2.00394 20.8582 3.50489C20.8582 5.00583 20.5628 5.76221 19.2627 5.76221H13.1881C8.29521 5.76221 6.15606 7.18043 6.15606 9.02411V14.3779H33.3267C34.6622 14.3779 34.9577 15.1343 34.9577 16.6352C34.9577 18.1361 34.6622 18.8925 33.3267 18.8925H6.15606V18.9043Z" fill="#1E4482"/>
<path d="M47.3908 5.76221V29.7892C47.3908 31.3846 46.4335 31.751 44.5898 31.751C42.7461 31.751 41.8243 31.3728 41.8243 29.7892V5.76221H29.2258C27.8903 5.76221 27.5948 5.00583 27.5948 3.50489C27.5948 2.00394 27.8903 1.24756 29.2258 1.24756H60.0365C61.372 1.24756 61.6675 2.00394 61.6675 3.50489C61.6675 5.00583 61.372 5.76221 60.0365 5.76221H47.3908Z" fill="#1E4482"/>
<path d="M69.7039 29.7896C69.7039 31.3851 68.7467 31.7514 66.903 31.7514C65.0593 31.7514 64.1375 31.3732 64.1375 29.7896V3.04438C64.1375 1.44889 65.0947 1.08252 66.903 1.08252C68.7112 1.08252 69.7039 1.46071 69.7039 3.04438V29.7896Z" fill="#1E4482"/>
<path d="M108.965 1.08252C107.121 1.08252 106.164 1.46071 106.164 3.04438V14.3901H79.2179V3.04438C79.2179 1.44889 78.2488 1.08252 76.4169 1.08252C74.585 1.08252 73.6514 1.46071 73.6514 3.04438V29.7896C73.6514 31.3851 74.6087 31.7633 76.4169 31.7633C78.2251 31.7633 79.2179 31.3732 79.2179 29.7896V18.9048H106.164C107.369 18.9875 108.929 19.023 110.974 18.9639C111.222 18.9639 111.482 18.952 111.73 18.9402V3.04438C111.73 1.44889 110.773 1.08252 108.965 1.08252ZM106.152 22.3558V29.7896C106.152 31.3851 107.109 31.7633 108.953 31.7633C110.797 31.7633 111.719 31.3732 111.719 29.7896V23.3721C110.939 23.3721 108.634 23.3131 106.152 22.3676V22.3558ZM110.513 21.9894C108.528 21.4457 107.239 20.973 106.164 20.5475V21.0203C107.689 21.5166 109.331 21.8594 110.903 22.0839C110.773 22.0603 110.655 22.0248 110.513 21.9894Z" fill="#1E4482"/>
<path d="M156.475 28.6192L145.425 12.8652C144.716 13.5152 143.097 14.9335 141.525 15.8671L143.817 19.2354H126.527L129.399 14.7916L134.954 6.22325L137.648 10.1943C138.936 9.41424 140.296 8.55149 141.714 7.58238L138.204 2.58317C137.542 1.66133 136.573 1.11768 134.942 1.11768C133.311 1.11768 132.259 1.67314 131.633 2.58317L121.953 17.2499L118.49 22.5091L114.472 28.6074C114.295 28.9029 114.177 29.1984 114.177 29.5293C114.177 30.8175 115.808 31.7866 117.19 31.7866C117.9 31.7866 118.621 31.5384 118.987 30.9475L123.632 23.75H146.902L151.842 30.9475C152.256 31.5384 152.93 31.7866 153.686 31.7866C155.104 31.7866 156.735 30.8293 156.735 29.5647C156.735 29.2811 156.652 28.9383 156.451 28.6074L156.475 28.6192Z" fill="#1E4482"/>
<path d="M197.284 23.809C197.284 28.9973 193.183 31.5974 184.899 31.5974H161.167C159.867 31.5974 159.241 30.9237 159.241 29.6355V3.17397C159.241 1.87394 159.867 1.24756 161.167 1.24756H184.899C193.183 1.24756 197.284 3.80035 197.284 9.03593V23.809ZM164.807 27.0709H184.733C189.626 27.0709 191.812 25.6054 191.812 23.809V9.03593C191.812 7.19225 189.638 5.77403 184.733 5.77403H164.807V27.0827V27.0709Z" fill="#1E4482"/>
<path d="M142.482 0.845703L145.106 5.21854C144.089 6.01037 143.203 6.56584 142.21 7.25131C142.045 7.3695 141.891 7.47586 141.726 7.58223C140.307 8.55134 138.948 9.41409 137.66 10.1941C133.831 12.4987 130.734 13.976 129.411 14.8033L126.539 19.2471H134.079C135.675 18.2188 137.246 17.1552 138.724 16.1506C139.421 15.6661 140.095 15.1933 140.745 14.7324C142.258 13.6569 143.617 12.676 144.716 11.8605C144.905 11.7305 145.07 11.6005 145.236 11.4705C146.796 10.3241 147.729 9.60319 147.729 9.60319L151.228 13.976L155.731 0.86934H142.494L142.482 0.845703ZM111.719 18.6325C108.457 18.8807 106.152 18.9161 106.152 18.9161H102.016C102.689 19.448 103.469 19.9089 104.344 20.3107C104.923 20.5707 105.538 20.8071 106.164 21.008C107.688 21.5044 109.331 21.8471 110.903 22.0717C111.258 22.1189 111.612 22.1662 111.955 22.2135C115.536 22.6271 118.514 22.4971 118.514 22.4971L121.977 17.2379C118.455 17.9825 114.697 18.3961 111.73 18.6207L111.719 18.6325Z" fill="url(#paint0_linear_1137_203)"/>
<defs>
<linearGradient id="paint0_linear_1137_203" x1="155.033" y1="1.28299" x2="113.373" y2="23.4899" gradientUnits="userSpaceOnUse">
<stop stop-color="#ED6625"/>
<stop offset="1" stop-color="#F8D477"/>
</linearGradient>
</defs>
</svg>
