<svg width="155" height="72" viewBox="0 0 155 72" fill="none" xmlns="http://www.w3.org/2000/svg">
<g clip-path="url(#clip0_1137_120)">
<path d="M131.098 16.4614C119.516 16.4614 110.129 25.8737 110.129 37.475C110.129 49.0821 119.516 58.4885 131.098 58.4885C142.68 58.4885 152.067 49.0821 152.067 37.475C152.067 25.8679 142.68 16.4614 131.098 16.4614ZM131.098 49.8369C124.284 49.8369 118.757 44.3034 118.757 37.475C118.757 30.6466 124.278 25.1072 131.098 25.1072C137.912 25.1072 143.434 30.6408 143.434 37.475C143.434 44.3092 137.912 49.8369 131.098 49.8369Z" fill="#00E1D7"/>
<path d="M21.5385 16.4614C9.96198 16.4614 0.569824 25.8737 0.569824 37.475C0.569824 49.0763 9.96198 58.4885 21.5385 58.4885C33.1208 58.4885 42.5071 49.0821 42.5071 37.475C42.5071 25.8679 33.115 16.4614 21.5385 16.4614ZM21.5385 49.8369C14.7247 49.8369 9.19716 44.3034 9.19716 37.475C9.19716 30.6466 14.7189 25.1072 21.5385 25.1072C28.3523 25.1072 33.8798 30.6408 33.8798 37.475C33.8798 44.3034 28.3581 49.8369 21.5385 49.8369Z" fill="#00E1D7"/>
<path d="M89.5375 36.0756C89.1261 29.7756 85.9452 24.2363 81.1999 20.6653C77.6945 18.0234 73.3431 16.4614 68.621 16.4614C57.0387 16.4614 47.6523 25.8737 47.6523 37.475C47.6523 49.0821 57.0387 58.4885 68.621 58.4885C80.2033 58.4885 89.5897 49.0821 89.5897 37.475C89.5897 37.0047 89.5723 36.5343 89.5433 36.0756H89.5375ZM68.6152 49.8369C61.8014 49.8369 56.2797 44.3034 56.2797 37.475C56.2797 30.6466 61.8014 25.1072 68.6152 25.1072C75.429 25.1072 80.9565 30.6408 80.9565 37.475C80.9565 44.3034 75.4348 49.8369 68.6152 49.8369Z" fill="#00E1D7"/>
<path d="M89.5839 0H81.1941V36.0755H89.5839V0Z" fill="#00E1D7"/>
<path d="M105.193 15.7588H96.8032V58.4885H105.193V15.7588Z" fill="#00E1D7"/>
<path d="M108.223 62.6518H113.519V64.0279H109.898V66.5654H113.276V67.9415H109.898V71.8434H108.223V62.646V62.6518Z" fill="#00E1D7"/>
<path d="M119.661 70.2524C119.661 70.8505 119.69 71.4428 119.753 71.8492H118.241L118.131 71.1118H118.09C117.685 71.6286 116.99 72.0002 116.132 72.0002C114.799 72.0002 114.052 71.0305 114.052 70.0202C114.052 68.3421 115.535 67.4944 117.986 67.5118V67.4015C117.986 66.966 117.807 66.2402 116.636 66.2402C115.981 66.2402 115.304 66.4434 114.852 66.7337L114.527 65.6421C115.02 65.3402 115.877 65.0557 116.926 65.0557C119.052 65.0557 119.661 66.4086 119.661 67.8544V70.2524ZM118.027 68.6034C116.845 68.5744 115.715 68.8357 115.715 69.846C115.715 70.5021 116.138 70.7982 116.665 70.7982C117.331 70.7982 117.824 70.3628 117.975 69.8866C118.015 69.7647 118.027 69.6253 118.027 69.5208V68.6092V68.6034Z" fill="#00E1D7"/>
<path d="M121.347 70.3105C121.729 70.5428 122.447 70.7866 123.05 70.7866C123.786 70.7866 124.11 70.4847 124.11 70.0492C124.11 69.6137 123.838 69.3699 123.021 69.0795C121.729 68.6266 121.184 67.9182 121.196 67.1402C121.196 65.9673 122.164 65.0557 123.699 65.0557C124.435 65.0557 125.072 65.2473 125.455 65.4505L125.13 66.635C124.846 66.4724 124.313 66.2518 123.728 66.2518C123.131 66.2518 122.801 66.5363 122.801 66.9486C122.801 67.3724 123.114 67.5757 123.96 67.8776C125.159 68.3131 125.715 68.9286 125.727 69.9099C125.727 71.1118 124.788 71.9944 123.033 71.9944C122.227 71.9944 121.509 71.7911 121.016 71.5182L121.341 70.3047L121.347 70.3105Z" fill="#00E1D7"/>
<path d="M127.112 62.1641H128.798V66.1183H128.827C129.03 65.8047 129.313 65.5318 129.655 65.3518C129.98 65.1602 130.374 65.0499 130.797 65.0499C131.927 65.0499 133.109 65.7989 133.109 67.9299V71.8434H131.434V68.1215C131.434 67.1518 131.081 66.4318 130.154 66.4318C129.499 66.4318 129.035 66.8673 128.862 67.3725C128.809 67.506 128.792 67.686 128.792 67.8776V71.8492H127.106V62.1641H127.112Z" fill="#00E1D7"/>
<path d="M136.683 63.3486C136.683 63.8538 136.318 64.2486 135.733 64.2486C135.148 64.2486 134.806 63.8538 134.806 63.3486C134.806 62.8435 135.189 62.437 135.745 62.437C136.318 62.437 136.672 62.8319 136.683 63.3486ZM134.899 71.8493V65.2067H136.585V71.8493H134.899Z" fill="#00E1D7"/>
<path d="M144.685 68.4699C144.685 70.9144 142.97 72.0002 141.284 72.0002C139.407 72.0002 137.964 70.7053 137.964 68.5744C137.964 66.3911 139.395 65.0557 141.394 65.0557C143.37 65.0557 144.691 66.4492 144.691 68.4641L144.685 68.4699ZM139.69 68.5337C139.69 69.817 140.316 70.7866 141.336 70.7866C142.286 70.7866 142.953 69.846 142.953 68.5105C142.953 67.4711 142.489 66.2866 141.348 66.2866C140.166 66.2866 139.685 67.4305 139.685 68.5395L139.69 68.5337Z" fill="#00E1D7"/>
<path d="M146.064 67.1867C146.064 66.4202 146.053 65.7815 146.012 65.2067H147.484L147.565 66.2054H147.605C147.889 65.6886 148.613 65.0615 149.714 65.0615C150.873 65.0615 152.073 65.8106 152.073 67.9125V71.8551H150.398V68.1041C150.398 67.146 150.045 66.426 149.135 66.426C148.469 66.426 148.005 66.9022 147.825 67.4073C147.773 67.5583 147.756 67.7615 147.756 67.9531V71.8551H146.07V67.1925L146.064 67.1867Z" fill="#00E1D7"/>
<path d="M147.414 10.3821H146V9.87109H149.436V10.3821H148.017V14.5221H147.414V10.3821Z" fill="#00E1D7"/>
<path d="M153.863 12.4781C153.828 11.8278 153.788 11.0498 153.794 10.4691H153.77C153.614 11.0149 153.417 11.5956 153.185 12.2343L152.368 14.4872H151.916L151.169 12.2749C150.949 11.6188 150.763 11.0207 150.63 10.4691H150.618C150.607 11.0498 150.572 11.8278 150.531 12.5246L150.41 14.5162H149.836L150.161 9.86523H150.925L151.719 12.1123C151.91 12.6872 152.073 13.1923 152.189 13.6801H152.212C152.328 13.2098 152.496 12.6988 152.698 12.1123L153.527 9.86523H154.292L154.582 14.5162H153.996L153.88 12.4723L153.863 12.4781Z" fill="#00E1D7"/>
</g>
<defs>
<clipPath id="clip0_1137_120">
<rect width="154" height="72" fill="white" transform="translate(0.569824)"/>
</clipPath>
</defs>
</svg>
