<svg width="231" height="73" viewBox="0 0 231 73" fill="none" xmlns="http://www.w3.org/2000/svg">
<g clip-path="url(#clip0_1137_107)">
<path d="M1.00311 27.9973C1.2931 24.1544 1.98758 20.3947 3.07126 16.6955C3.78863 14.2672 4.7731 11.9448 6.15441 9.81155C9.03151 5.37104 13.2441 2.93518 18.342 1.80803C25.943 0.136217 33.6433 -0.189068 41.3893 0.0832634C46.6169 0.264818 51.7454 1.01373 56.7211 2.64015C61.1551 4.09259 65.0243 6.36959 67.703 10.3184C69.5193 12.9888 70.3816 16.0147 70.9998 19.1162C72.5566 26.9306 72.5872 34.8207 72.2208 42.7334C72.1522 44.2691 71.9461 45.7896 71.8087 47.3252C71.6866 47.4463 71.5722 47.5749 71.679 47.764C70.9998 53.4754 69.7635 59.0204 66.4056 63.8618C63.5514 67.977 59.4303 70.1406 54.6072 71.1996C47.113 72.8412 39.5272 73.1816 31.888 72.9168C27.1259 72.7504 22.3791 72.3192 17.7315 71.1845C12.8702 69.9893 8.64993 67.7501 5.60494 63.6576C3.58257 60.9418 2.621 57.8024 1.99521 54.5496C0.423107 46.4099 0.186528 38.2021 0.789422 29.9565C0.827579 29.4119 0.751264 28.8596 0.957316 28.3301C1.12521 28.2393 1.09468 28.1259 1.00311 27.9973Z" fill="#FAB217"/>
<path d="M172.568 30.501C171.637 28.103 169.996 26.2648 167.47 25.4099C164.219 24.313 161.197 24.8274 158.442 26.8699C158.251 27.0137 158.068 27.3163 157.816 27.2028C157.503 27.0666 157.648 26.7111 157.648 26.4614C157.641 23.4658 157.648 20.4777 157.648 17.4821C157.648 15.0613 157.213 14.6377 154.718 14.668C154.611 14.668 154.497 14.668 154.382 14.668C152.718 14.7587 152.169 15.3261 152.169 16.9752C152.169 22.0587 152.169 27.1347 152.169 32.2182V36.4999C152.169 40.2898 152.169 44.0798 152.169 47.8697C152.169 48.5884 152.306 49.2843 153.108 49.5264C154.107 49.8214 155.122 49.8744 156.137 49.5567C156.763 49.36 157.099 48.9515 157.145 48.2934C157.16 48.0588 157.03 47.726 157.282 47.6125C157.595 47.4688 157.755 47.8243 157.946 47.9908C162.525 51.8791 170.172 50.1845 172.499 44.11C173.186 42.3172 173.499 40.4865 173.652 38.5802C173.873 35.7964 173.56 33.0882 172.56 30.501H172.568ZM167.134 42.6122C165.837 45.4868 162.815 46.1147 160.289 44.1932C160.007 43.9739 159.724 43.7469 159.449 43.5276C158.251 42.5517 157.32 41.4699 157.626 39.7452C157.755 38.9963 157.648 38.2095 157.648 37.4455C157.648 36.6209 157.709 35.7888 157.633 34.9794C157.526 33.9203 157.801 33.0579 158.579 32.3166C159.381 31.5601 160.167 30.7734 161.151 30.2514C163.578 28.9654 166.234 29.7445 167.234 32.2787C168.584 35.6905 168.661 39.2232 167.127 42.6198L167.134 42.6122Z" fill="white"/>
<path d="M104.296 47.4991C104.235 47.2873 104.167 47.0831 104.09 46.8712C100.656 37.4758 97.2218 28.0804 93.7876 18.6849C93.3297 17.4367 92.7192 16.998 91.376 16.9677C90.9868 16.9602 90.5976 16.9677 90.2084 16.9677V16.9828C89.7123 16.9828 89.2087 16.9526 88.7126 16.9828C87.7816 17.0509 87.0794 17.4443 86.7437 18.3596C85.5989 21.5066 84.4389 24.6535 83.2942 27.808C81.4397 32.8915 79.5776 37.9751 77.7232 43.0662C77.1889 44.5337 76.6318 46.0013 76.1358 47.484C75.7237 48.7019 76.1434 49.3752 77.395 49.6551C78.1658 49.8215 78.9366 49.7685 79.7074 49.708C80.8445 49.6172 81.4702 49.0272 81.806 47.9379C82.4166 45.971 83.1492 44.042 83.7979 42.0827C83.9734 41.5532 84.2405 41.349 84.8129 41.3565C88.3005 41.3792 91.7958 41.3792 95.291 41.3565C95.8939 41.3565 96.1763 41.5683 96.3671 42.1281C97.0386 44.1101 97.7789 46.0618 98.4428 48.0362C98.7786 49.0348 99.3968 49.6324 100.458 49.7156C101.312 49.7837 102.175 49.8366 103.022 49.6551C104.273 49.3903 104.663 48.7246 104.296 47.4915V47.4991ZM93.7876 36.742C91.2997 36.742 88.8042 36.742 86.3163 36.742C85.8126 36.742 85.5913 36.5983 85.7821 36.0612C87.1558 32.1805 88.5142 28.2922 89.8802 24.4114C89.8955 24.3661 89.9489 24.3282 90.0634 24.1996C90.7655 26.1589 91.4523 28.035 92.1239 29.9262C92.8489 31.9686 93.5434 34.0263 94.2836 36.0612C94.4821 36.6059 94.3065 36.7496 93.7876 36.7496V36.742Z" fill="white"/>
<path d="M225.501 31.8853C224.661 29.0712 222.891 27.0136 220.143 25.8486C217.289 24.6307 214.328 24.5853 211.352 25.3039C208.749 25.9318 206.681 27.3616 205.186 29.6007C203.56 32.0366 203.14 34.775 203.041 37.6042C203.018 38.8751 203.156 40.1309 203.407 41.3715C204.277 45.7137 206.674 48.7018 211.176 49.7154C212.855 50.0937 214.557 50.1845 216.289 49.9575C219.663 49.5112 222.456 48.089 224.234 45.169C226.775 40.9857 226.874 36.4847 225.508 31.908L225.501 31.8853ZM219.533 42.8315C218.182 45.0404 216.053 45.517 213.702 45.2674C211.42 45.0253 209.856 43.7317 209.215 41.5455C208.368 38.6633 208.337 35.7584 209.429 32.9141C210.207 30.8716 212.023 29.7066 214.252 29.631C216.228 29.5629 218.029 29.8731 219.289 31.5449C220.25 32.8157 220.548 34.3363 220.685 35.8795C220.731 36.3939 220.685 36.9234 220.685 37.4454C220.746 39.3366 220.555 41.1672 219.533 42.8315Z" fill="white"/>
<path d="M199.714 33.4514C198.928 29.7447 196.989 26.923 193.273 25.5916C191.075 24.8049 188.785 24.6914 186.473 25.0318C182.871 25.5614 180.062 27.2786 178.422 30.5617C176.392 34.624 176.353 38.8754 177.651 43.1419C178.536 46.0619 180.444 48.1725 183.374 49.2467C186.442 50.3662 189.556 50.3511 192.654 49.3677C194.318 48.8382 195.753 47.9001 196.913 46.599C199.309 43.9211 200.034 40.6833 200.088 36.5908C200.133 35.9402 199.973 34.692 199.706 33.4514H199.714ZM194.257 40.3581C193.563 43.7395 191.479 45.3811 187.9 45.313C185.099 45.2525 183.092 43.2932 182.596 40.1462C182.451 39.246 182.405 38.3458 182.42 37.5364C182.382 35.7209 182.573 34.049 183.397 32.4983C184.389 30.6222 185.931 29.6993 188.075 29.6312C189.899 29.5707 191.555 29.8279 192.815 31.2879C193.563 32.1503 193.952 33.164 194.188 34.2457C194.631 36.2806 194.677 38.308 194.257 40.3656V40.3581Z" fill="white"/>
<path d="M146.171 32.2639C145.98 29.3288 144.858 26.8627 141.912 25.7506C137.509 24.0864 133.25 24.7143 129.221 26.9837C127.71 27.8309 127.824 29.5028 128.275 30.872C128.519 31.6133 129.313 31.8403 130.167 31.5377C130.48 31.4318 130.755 31.2427 131.045 31.0762C132.938 30.0172 134.929 29.3742 137.143 29.4801C139.302 29.5784 140.478 30.5618 140.813 32.6573C140.867 33.0052 140.859 33.3684 140.859 33.7239C140.867 34.9116 140.859 34.9343 139.691 34.9116C137.356 34.8662 135.036 34.9267 132.777 35.6075C129.58 36.5758 127.321 38.4443 126.97 41.9317C126.695 44.6096 127.45 46.9622 129.809 48.5433C132.09 50.0789 134.632 50.3437 137.288 49.8066C138.753 49.5116 140.004 48.7627 141.271 47.8851C141.63 49.3603 142.004 49.6704 143.408 49.7461C143.66 49.7612 143.904 49.7536 144.156 49.7461C145.698 49.7007 146.346 49.0804 146.331 47.575C146.27 42.4688 146.514 37.3626 146.178 32.2563L146.171 32.2639ZM140.851 41.1676C140.737 41.7728 141.111 42.5671 140.416 43.2177C139.279 44.2768 138.165 45.3509 136.494 45.4795C136.112 45.5098 135.723 45.4947 135.334 45.4795C133.792 45.4417 132.808 44.6701 132.48 43.2404C132.159 41.8333 132.739 40.4944 134.059 39.8741C136.082 38.9285 138.264 39.0873 140.409 39.0722C140.775 39.0722 140.851 39.3445 140.851 39.6471V41.1676Z" fill="white"/>
<path d="M115.026 41.901C115.331 41.7346 115.339 41.4623 115.415 41.2429C117.041 36.5452 118.659 31.8399 120.277 27.1346C120.841 25.493 121.231 25.2056 123.001 25.2056C123.581 25.2056 124.161 25.1678 124.733 25.3266C125.756 25.6065 126.176 26.2041 125.871 27.2329C125.52 28.413 125.085 29.578 124.657 30.7354C122.513 36.6511 120.353 42.5592 118.201 48.4672C117.209 51.1754 116.171 53.8685 115.232 56.5994C114.874 57.6282 114.194 58.1047 113.195 58.2636C112.393 58.3922 111.584 58.3998 110.791 58.2863C109.44 58.0972 109.012 57.3029 109.501 56.0547C110.333 53.9593 111.165 51.8714 112.004 49.7759C112.119 49.496 112.218 49.2464 112.073 48.9136C110.752 45.9482 109.722 42.8693 108.562 39.851C107.036 35.8795 105.563 31.8777 104.044 27.8986C103.357 26.0982 103.937 25.2434 105.914 25.2056C108.852 25.1526 108.944 25.2207 109.921 27.9138C111.531 32.3845 113.149 36.8553 114.759 41.3261C114.828 41.5228 114.935 41.7043 115.026 41.901Z" fill="white"/>
<path d="M71.6713 47.7638C71.5568 47.7109 71.3965 47.6504 71.4194 47.5066C71.4576 47.3251 71.6331 47.3175 71.801 47.3251C71.8468 47.4991 71.7934 47.6352 71.6713 47.7638Z" fill="#DF5952"/>
<path d="M26.5153 30.6752C27.3548 27.6039 28.2477 24.699 29.6061 21.9454C30.2777 20.5838 31.0408 19.2826 32.0787 18.1555C34.4979 15.5607 37.3674 15.4624 39.9316 17.9134C42.0684 19.9559 43.3734 22.5355 44.5716 25.168C45.0753 26.2649 45.5561 27.3769 45.9529 28.5192C46.2124 29.2605 46.5863 29.6615 47.4029 29.8506C49.1047 30.244 50.7303 30.8945 52.1039 32.0217C52.8518 32.6344 53.4089 33.3606 53.4547 34.3819C53.4853 34.9719 53.4089 35.5317 53.1037 36.0461C49.9137 41.4474 46.7313 46.8486 43.5337 52.2423C43.3658 52.5222 43.1521 52.7945 42.9003 52.9912C39.8782 55.306 36.5356 56.1306 32.8495 54.8824C31.0408 54.2697 29.7587 52.9912 28.9269 51.2816C25.8972 45.0255 22.8598 38.777 19.8301 32.521C19.0974 31.008 19.6088 29.9641 21.303 29.6463C23.1193 29.3059 24.8974 29.3135 26.5077 30.6676L26.5153 30.6752Z" fill="white"/>
<path d="M46.5177 37.0977C46.4948 37.5289 46.3803 37.9374 46.1514 38.3308C43.7932 42.272 41.4427 46.2208 39.0998 50.1621C38.764 50.7294 38.3367 51.2211 37.6269 51.206C36.9019 51.1909 36.5509 50.6538 36.2609 50.0486C33.8493 45.1088 31.4377 40.1766 28.9956 35.2519C28.6599 34.5711 28.5683 33.9508 28.7514 33.2094C29.6214 29.6616 30.6059 26.1515 32.2467 22.8608C32.7885 21.7715 33.4143 20.7351 34.2691 19.8652C35.4748 18.6397 36.5204 18.6019 37.8177 19.7215C38.6419 20.4325 39.283 21.2949 39.863 22.1951C41.1451 24.1922 42.099 26.3482 43.0072 28.5344C43.1675 28.9126 43.198 29.1245 42.6485 29.1093C39.5043 29.0564 36.7493 30.1608 34.208 31.9083C33.0022 32.7404 31.8422 33.6255 30.7433 34.6014C30.1327 35.146 30.2091 35.8949 30.9493 36.258C31.7201 36.6363 32.3841 36.8178 33.2693 36.1597C36.1464 34.0491 39.3135 32.8161 42.9767 33.9357C43.8543 34.2004 44.6785 34.5862 45.434 35.1158C46.1056 35.5923 46.449 36.258 46.5101 37.0902L46.5177 37.0977Z" fill="#FAB217"/>
<path d="M225.249 21.1588C225.165 21.1588 225.104 21.1361 225.058 21.0907C225.012 21.0453 224.99 20.9772 224.99 20.894V17.4974C224.99 17.4142 225.012 17.3461 225.058 17.3083C225.104 17.2629 225.165 17.2402 225.249 17.2402H226.569C226.989 17.2402 227.317 17.3386 227.546 17.5353C227.775 17.7319 227.89 18.0118 227.89 18.3674C227.89 18.6019 227.836 18.8061 227.737 18.9726C227.63 19.139 227.485 19.2676 227.287 19.3584C227.088 19.4491 226.852 19.487 226.577 19.487L226.63 19.4113H226.752C226.897 19.4113 227.027 19.4491 227.142 19.5248C227.248 19.6004 227.348 19.7139 227.432 19.8803L227.943 20.8108C227.973 20.8713 227.989 20.9243 227.989 20.9848C227.989 21.0377 227.966 21.0831 227.928 21.121C227.889 21.1588 227.836 21.1739 227.767 21.1739C227.691 21.1739 227.638 21.1588 227.592 21.1285C227.546 21.0983 227.508 21.0529 227.477 20.9848L226.874 19.8955C226.791 19.7442 226.699 19.6383 226.6 19.5929C226.493 19.5399 226.356 19.5172 226.18 19.5172H225.516V20.9091C225.516 20.9924 225.493 21.0604 225.455 21.1058C225.409 21.1512 225.348 21.1739 225.257 21.1739L225.249 21.1588ZM225.508 19.1012H226.493C226.791 19.1012 227.012 19.0406 227.157 18.9196C227.302 18.7986 227.378 18.617 227.378 18.3749C227.378 18.1329 227.302 17.9589 227.157 17.8379C227.012 17.7168 226.783 17.6563 226.493 17.6563H225.508V19.1087V19.1012Z" fill="white"/>
<path d="M226.493 22.8608C228.537 22.8608 230.194 21.2181 230.194 19.1919C230.194 17.1656 228.537 15.5229 226.493 15.5229C224.449 15.5229 222.792 17.1656 222.792 19.1919C222.792 21.2181 224.449 22.8608 226.493 22.8608Z" stroke="white" stroke-width="0.75" stroke-miterlimit="10"/>
</g>
<defs>
<clipPath id="clip0_1137_107">
<rect width="230" height="73" fill="white" transform="translate(0.484131)"/>
</clipPath>
</defs>
</svg>
